<svg width="72" height="85" viewBox="0 0 72 85" fill="none" xmlns="http://www.w3.org/2000/svg">
<path d="M36.0686 0.127441C27.5931 0.127441 11.9648 2.32793 4.00587 6.97232C-6.47282 44.2538 7.77815 69.6061 36.0686 83.9956C64.3593 69.6061 78.6103 44.1283 68.1314 6.97254C60.1645 2.32793 44.544 0.127441 36.0686 0.127441Z" fill="#9C824A" stroke="#9C824A" stroke-width="0.175173" stroke-miterlimit="282"/>
<path d="M36.0675 2.52466C27.7408 2.52466 18.3653 3.59348 6.0864 8.62291C-3.05423 41.1657 7.54993 67.2489 36.0675 81.4651C64.5851 67.2489 75.1813 41.1655 66.0407 8.62291C53.7618 3.59348 44.3942 2.52466 36.0675 2.52466Z" fill="#023474" stroke="#023474" stroke-width="0.175173" stroke-miterlimit="282"/>
<path d="M36.0299 2.49292C27.7422 2.49292 18.8442 3.7266 10.8147 6.77595C2.48798 40.0968 8.63142 64.4272 36.0769 81.4414L36.0299 2.49292ZM36.0769 81.4414C63.5221 64.4272 69.6579 40.0968 61.3309 6.77595C53.3017 3.7266 44.4113 2.49292 36.1239 2.49292L36.0769 81.4414Z" fill="white" stroke="white" stroke-width="0.175173" stroke-miterlimit="282"/>
<path d="M36.0759 2.48511C27.7413 2.48511 19.305 3.75021 12.4495 6.14698C3.8253 41.0711 10.7511 64.6548 36.0837 80.773L36.0759 2.48511Z" fill="#EF0107" stroke="#EF0107" stroke-width="0.175173" stroke-miterlimit="282"/>
<path d="M36.0917 2.48511C44.4261 2.48511 52.8627 3.75021 59.7259 6.14698C68.35 41.0711 61.424 64.6548 36.084 80.773L36.0917 2.48511Z" fill="#DB0007" stroke="#DB0007" stroke-width="0.175173" stroke-miterlimit="282"/>
<path d="M25.3077 55.1853C21.6295 57.7162 18.7027 58.6276 15.3062 59.5314L13.2559 56.3329C16.3785 54.7456 19.6105 52.5371 22.8662 49.3389C23.14 52.4427 24.5798 54.6429 25.3077 55.1853Z" fill="white"/>
<path d="M24.807 55.0519C21.3168 57.4564 16.4567 59.1304 10.8926 59.9477L9.75781 58.219C14.5237 56.4267 19.1253 53.7551 22.6941 49.9988C23.2341 52.4033 24.0557 53.9988 24.807 55.0519Z" fill="#9C824A"/>
<path d="M15.5092 40.3642C15.5092 41.7081 14.4294 42.7926 13.0911 42.7926C11.7528 42.7926 10.665 41.7081 10.665 40.3642C10.665 39.0203 11.7528 37.936 13.0911 37.936C14.4294 37.936 15.5092 39.0203 15.5092 40.3642Z" fill="white"/>
<path d="M15.251 35.5779V44.7412H22.4429C22.9124 41.6684 24.6498 38.407 28.5862 35.5779H15.251Z" fill="white"/>
<path d="M15.5404 44.7412C13.936 44.7646 12.6136 42.745 12.59 40.2145C12.5743 37.6839 13.8579 35.6093 15.4701 35.5779C15.4857 35.5779 15.5014 35.5779 15.525 35.5779" fill="white"/>
<path d="M14.4921 40.364C14.4921 41.4014 13.7409 42.2345 12.8174 42.2345C11.8939 42.2345 11.1426 41.4016 11.1426 40.364C11.1426 39.3266 11.8939 38.4937 12.8174 38.4937C13.7409 38.4934 14.4921 39.3266 14.4921 40.364Z" fill="#9C824A"/>
<path d="M15.4473 36.0576V44.2933H22.5845C23.148 41.5586 24.5332 38.6509 27.9921 36.0576H15.4473Z" fill="#9C824A"/>
<path d="M15.7118 44.2933C14.2013 44.3249 12.9649 42.5017 12.9416 40.2304C12.9259 37.9594 14.1389 36.0888 15.6492 36.0576C15.6649 36.0576 15.6805 36.0576 15.6962 36.0576" fill="#9C824A"/>
<path d="M49.7247 46.8865C49.7247 54.5333 43.5581 60.7256 35.9434 60.7256C28.3366 60.7256 22.1621 54.5333 22.1621 46.8865C22.1621 39.2401 28.3366 33.0474 35.9434 33.0474C43.5581 33.0474 49.7247 39.2401 49.7247 46.8865Z" fill="white"/>
<path d="M49.0058 46.8867C49.0058 54.1326 43.1596 60.0027 35.9442 60.0027C28.7366 60.0027 22.8906 54.1326 22.8906 46.8867C22.8906 39.649 28.7366 33.7708 35.9442 33.7708C43.1596 33.7705 49.0058 39.6411 49.0058 46.8867Z" fill="#9C824A"/>
<path d="M46.8371 46.8869C46.8371 52.9303 41.9613 57.8265 35.9434 57.8265C29.9331 57.8265 25.0576 52.9303 25.0576 46.8869C25.0576 40.8435 29.9331 35.9475 35.9434 35.9475C41.9613 35.9475 46.8371 40.8435 46.8371 46.8869Z" fill="white"/>
<path d="M46.1171 46.8869C46.1171 52.5293 41.5622 57.0954 35.9431 57.0954C30.332 57.0954 25.7773 52.5293 25.7773 46.8869C25.7773 41.2445 30.332 36.6787 35.9431 36.6787C41.5622 36.6785 46.1171 41.2445 46.1171 46.8869Z" fill="#9C824A"/>
<path d="M40.1835 46.8868C40.1914 49.2367 38.2897 51.1464 35.9497 51.1541C33.6021 51.1541 31.7002 49.2446 31.7002 46.8948V46.8868C31.7002 44.537 33.5942 42.6275 35.9417 42.6275C38.2816 42.6197 40.1833 44.5294 40.1833 46.8791C40.1835 46.8868 40.1835 46.8868 40.1835 46.8868Z" fill="white"/>
<path d="M39.6839 46.8867C39.6839 48.9618 38.0166 50.6433 35.9508 50.6433C33.8849 50.6433 32.2101 48.9697 32.2021 46.8949V46.887C32.2021 44.8124 33.8769 43.1304 35.9429 43.1304C38.0089 43.1304 39.6839 44.8044 39.6839 46.879V46.8867Z" fill="#9C824A"/>
<path d="M37.8688 46.8866C37.8688 47.9474 37.0079 48.8118 35.9437 48.8195C34.8872 48.8195 34.0264 47.9554 34.0264 46.8866C34.0264 45.818 34.8872 44.9614 35.9437 44.9536C37.0077 44.9534 37.8688 45.818 37.8688 46.8866Z" fill="white"/>
<path d="M37.3357 46.8866C37.3357 47.6567 36.7174 48.2853 35.9428 48.2853C35.1758 48.2853 34.5498 47.6644 34.5498 46.8866C34.5498 46.1167 35.1758 45.488 35.9428 45.488C36.7095 45.4878 37.3357 46.1085 37.3357 46.8866Z" fill="#9C824A"/>
<path d="M37.375 36.4429H34.4795V43.2247H37.375V36.4429Z" fill="white"/>
<path d="M36.928 35.468H34.9326V44.089H36.928V35.468Z" fill="#9C824A"/>
<path d="M44.0114 40.2695L45.5922 42.7057L39.9264 46.3996L38.3535 43.9633L44.0114 40.2695Z" fill="white"/>
<path d="M45.0681 40.1204L46.1559 41.8022L38.9559 46.5016L37.8682 44.8121L45.0681 40.1204Z" fill="#9C824A"/>
<path d="M31.8808 47.4368L33.4304 49.8886L27.7253 53.5195L26.1758 51.0597L31.8808 47.4368Z" fill="white"/>
<path d="M32.8514 47.2952L33.9235 48.9927L26.6768 53.6056L25.6045 51.9081L32.8514 47.2952Z" fill="#9C824A"/>
<path d="M37.375 50.7769H34.4795V57.5584H37.375V50.7769Z" fill="white"/>
<path d="M36.928 49.8103H34.9326V58.4233H36.928V49.8103Z" fill="#9C824A"/>
<path d="M33.118 50.0537C33.5094 50.3837 33.9396 50.6824 34.4796 50.9103L34.464 56.9614C31.7327 56.6078 29.6668 55.2562 28.1016 53.331L33.1259 50.0537" fill="#EF0107"/>
<path d="M33.118 50.0537C33.5094 50.3837 33.9396 50.6824 34.4796 50.9103L34.464 56.9614C31.7327 56.6078 29.6668 55.2562 28.1016 53.331L33.1259 50.0537" stroke="#EF0107" stroke-width="0.0688101" stroke-miterlimit="282"/>
<path d="M38.7601 50.0774C38.361 50.3996 37.9382 50.7061 37.3984 50.926L37.4062 56.9774C40.1374 56.6238 42.2036 55.2721 43.7688 53.3467L38.7524 50.0776" fill="#DB0007"/>
<path d="M38.7601 50.0774C38.361 50.3996 37.9382 50.7061 37.3984 50.926L37.4062 56.9774C40.1374 56.6238 42.2036 55.2721 43.7688 53.3467L38.7524 50.0776" stroke="#DB0007" stroke-width="0.0688101" stroke-miterlimit="282"/>
<path d="M40.1301 47.5391L46.1091 46.8159C46.156 48.3167 45.7959 49.6371 45.2872 50.9024L40.1143 47.5391" fill="#DB0007"/>
<path d="M40.1377 47.5153C40.1611 47.421 40.1534 47.3347 40.1926 47.0596L46.0935 46.2896C46.1169 46.5646 46.1012 46.6666 46.0935 46.7923L40.1377 47.5153Z" fill="white" stroke="white" stroke-width="0.0688101" stroke-miterlimit="282"/>
<path d="M48.8701 42.5254H56.6101C56.3673 43.4446 56.1324 44.3798 55.0211 44.7965C53.2446 45.4648 49.5588 46.1089 49.5588 46.1089C49.4882 45.095 49.2613 43.7195 48.8701 42.5254Z" fill="white"/>
<path d="M43.4795 35.4446L63.7015 35.468L62.9894 42.8865L49.1766 43.6097C48.4331 40.2932 45.9208 37.1264 43.4795 35.4446Z" fill="white"/>
<path d="M44.1992 35.9712L70.0169 35.9946L69.0308 42.0382L48.9964 43.0285C48.2059 40.0263 46.3984 37.8338 44.1992 35.9712Z" fill="#9C824A"/>
<path d="M48.8701 42.5254H55.9992C55.7646 43.3424 55.6001 44.089 54.5516 44.4583C52.8847 45.0556 49.5275 45.5272 49.5275 45.5272C49.3866 44.5451 49.183 43.5469 48.8701 42.5254Z" fill="#9C824A"/>
<path d="M41.044 24.6704C41.044 25.0006 40.9736 25.9043 40.9346 26.1557H44.9415C44.6985 25.0867 44.5889 23.6016 44.5578 22.4542C44.5578 22.5328 44.4875 20.1515 44.4875 20.1515C44.4875 19.9864 44.5578 19.7351 44.6595 19.6565C44.8006 19.4914 44.9415 19.4914 45.1137 19.4914C45.2857 19.4129 45.5988 19.4129 45.6379 20.0652L45.7397 22.5328C45.7788 23.6879 45.7788 25.252 45.6379 26.1557H49.4961C49.4646 25.8256 49.3552 25.0004 49.3239 24.7567C49.809 25.8256 50.8578 26.3991 52.2508 26.3991C53.0803 26.3991 53.7141 26.0767 54.1994 25.7468C54.1994 25.8253 54.403 26.1557 54.403 26.1557H61.5715C61.2584 25.0867 61.0549 23.6016 60.9455 22.4542L59.9358 14.3912L56.2497 13.7311C56.5631 14.7999 56.7743 16.3637 56.9071 17.4326L57.4705 22.6193C57.5724 23.5231 57.6429 24.5133 57.6429 25.5819V25.6605L57.5018 25.3303C57.2202 24.6702 57.087 23.853 56.9774 22.6191L56.8445 20.9687C56.6332 18.3361 55.2089 17.1885 52.0706 17.1885C51.5542 17.1885 50.2315 17.267 49.4256 17.5186L49.6368 20.4735L50.4743 19.9862C51.1709 19.5698 51.6874 19.4047 52.3132 19.4047C52.8064 19.4047 53.1194 19.57 53.2603 19.8999C52.6658 19.9862 52.008 20.1513 51.2726 20.4735C50.1612 20.9685 49.4646 21.7149 49.1517 22.5324V22.4538L49.0421 19.7346C48.9797 18.0057 47.8606 16.8583 46.1543 16.8583C45.3953 16.8583 44.6985 17.102 44.0727 17.5184C44.0336 17.4319 44.0023 17.3531 43.9631 17.2668L43.8222 16.9367L40.6212 16.7716C40.7621 17.3531 40.9736 18.9957 41.0049 19.5695C40.8325 18.7521 40.3787 17.8484 39.5412 17.1883C38.884 16.7718 38.0465 16.5282 37.178 16.5282C35.996 16.5282 34.7753 17.0232 33.977 17.8484C33.1397 18.6656 32.7247 19.8209 32.6857 21.1334C32.3728 20.8032 31.958 20.481 31.4727 20.3162L30.0091 19.5695H29.9388C29.5946 19.4042 29.5553 19.3257 29.5553 19.2471C29.5946 19.082 29.9388 18.917 30.3928 18.917C31.0189 18.917 31.8877 19.2471 32.584 19.6558L32.6544 17.0232C32.13 16.7716 31.4023 16.6145 30.3536 16.6145C29.7979 16.6145 28.7571 16.693 27.8492 17.188C27.6064 17.3531 27.3952 17.5182 27.1919 17.6833L27.2232 16.9364C26.3859 16.7793 25.4858 16.7793 24.3744 17.8481C24.3354 17.7616 24.2648 17.3529 24.1945 17.188L20.7512 17.3531C20.9938 18.3356 21.0328 19.7344 20.9625 20.9683L20.8921 22.2885V22.4536C20.8529 23.1137 20.8218 23.8523 20.7512 24.5124C20.4694 23.6007 20.1642 22.3671 19.9137 21.3848L18.2078 13.6519L13.34 14.3905C13.3714 14.4691 13.4417 14.7207 13.481 14.9641C13.5125 15.2943 13.5125 15.9544 13.0585 17.3531C12.2602 19.5695 11.1488 22.9486 10.069 25.3297C9.92808 25.6598 9.64648 26.1548 9.64648 26.1548H13.4419C13.5125 25.581 13.755 24.591 13.9976 23.8521C14.522 23.8521 15.8759 23.8521 16.5017 23.7656C16.6426 24.3471 16.7835 25.0858 16.8228 25.5808L16.8854 26.1546H24.4765C24.3043 24.9207 24.3746 23.2781 24.4375 22.3666C24.5078 21.2978 24.7191 20.5591 25.1731 20.1504C25.5173 19.734 25.9008 19.6554 26.1826 19.6554C26.1436 21.1327 27.0827 21.793 27.92 22.2015L29.4146 22.9479C29.939 23.2781 29.939 23.3567 29.939 23.5217C29.9077 23.7654 29.485 23.8519 29.1017 23.8519C28.3035 23.8519 27.2234 23.3567 26.0417 22.0444L25.9714 25.4943C26.9105 25.9893 28.0922 26.233 29.141 26.233C30.8784 26.233 32.7252 25.4155 33.2105 23.8517C34.0791 25.4941 35.7852 26.233 37.46 26.233C38.9544 26.2343 40.0655 25.7468 41.044 24.6704ZM14.9055 21.2989C15.1167 20.7253 15.2887 20.2301 15.6018 19.3263C15.8131 20.2301 15.9147 20.8039 16.0166 21.2203C15.6018 21.2989 15.3906 21.2989 14.9055 21.2989ZM36.2075 20.3952C36.2075 19.2478 36.6223 18.7528 37.0373 18.7528C37.1782 18.7528 37.4911 18.6662 37.6318 19.2478C37.7021 19.4914 37.7334 19.6565 37.7334 19.7351C37.7334 20.0652 37.5614 20.1515 37.3502 20.1515V20.2301C37.3502 20.2301 36.7632 20.3952 36.2075 20.6465C36.2075 20.5602 36.2075 20.4817 36.2075 20.3952ZM40.1751 22.7842C39.4393 23.4365 38.9151 23.853 38.0465 23.853C37.3502 23.7665 36.9352 23.3578 36.6926 22.7842C37.4205 22.5328 40.2378 21.464 41.0437 21.1338C41.0437 21.7939 41.0753 22.5326 41.0753 22.5326V23.9316L40.1751 22.7842ZM53.1504 23.9318C52.4933 23.9318 52.3522 23.4365 52.3209 23.1143C52.3522 22.7842 52.4539 22.2892 53.5024 21.9592C53.5339 22.3679 53.5727 22.6979 53.5727 22.6979V23.0278C53.6043 23.2792 53.6043 23.5228 53.6354 23.7665C53.5026 23.853 53.3306 23.853 53.1504 23.9318Z" fill="#9C824A"/>
<path d="M32.0602 17.4324C31.716 17.3538 31.1916 17.1887 30.3543 17.1887C29.697 17.1887 28.8282 17.3538 28.1629 17.684C27.396 18.179 26.8403 18.8313 26.809 19.578C26.7386 20.7253 27.3333 21.2204 28.2019 21.6291C28.7889 21.9592 29.3523 22.2892 29.6968 22.4543C30.1506 22.6979 30.5654 22.9493 30.5341 23.5231C30.495 24.0969 29.9707 24.5134 29.1021 24.5134C28.3742 24.5134 27.3333 24.0183 26.5977 23.358L26.5664 25.0869C27.1924 25.4171 28.2019 25.582 29.1411 25.582C30.7376 25.582 32.7253 24.8433 32.7566 23.0278C32.7956 21.6291 31.8177 21.1338 31.2307 20.8116C30.6359 20.5603 30.041 20.2303 29.7673 20.1515C29.4855 19.9865 28.9298 19.8216 28.9691 19.1613C29.0317 18.5877 29.697 18.3361 30.3934 18.3361C30.9804 18.3361 31.5751 18.5012 32.0289 18.7526" fill="white"/>
<path d="M17.7633 14.3909L14.0695 14.8859C14.14 15.3811 13.9991 16.3634 13.6157 17.5186C12.8567 19.7348 11.6044 23.436 10.626 25.5814H12.927C13.06 24.835 13.2322 24.1826 13.5844 23.2789L16.9965 23.1924C17.1295 23.8525 17.38 24.9213 17.4113 25.5814H20.5104C20.1269 24.6699 19.6418 22.7837 19.3289 21.4635L17.7633 14.3909ZM14.0695 21.8724L15.7443 17.0235L16.754 21.7938" fill="white"/>
<path d="M26.5982 17.4324L26.5279 19.0827C25.9722 18.9964 25.2758 19.1613 24.7201 19.7351C24.2348 20.2301 23.9219 20.969 23.8515 22.2892C23.781 23.358 23.7497 24.5919 23.8123 25.582H21.2061C21.3783 24.5919 21.4488 23.4443 21.4799 22.368L21.5503 21.0555C21.6206 19.9867 21.6206 18.9179 21.4486 17.9278L23.7494 17.8493C23.8513 18.1794 23.9216 18.753 23.8826 19.3266C24.8921 17.7623 25.8703 17.4324 26.5982 17.4324Z" fill="white"/>
<path d="M59.4212 14.8859L57.0498 14.4695C57.2926 15.5463 57.3629 16.2849 57.5038 17.3535L58.0597 22.5325C58.1691 23.6014 58.271 24.5916 58.2395 25.5817H60.8144C60.5639 24.5916 60.4622 23.6014 60.3603 22.5325" fill="white"/>
<path d="M48.8009 25.5817C48.6677 24.5917 48.5971 23.6014 48.5579 22.5326L48.4562 19.8214C48.3859 18.3361 47.5486 17.5189 46.1554 17.5189C45.3964 17.5189 44.4883 17.7625 43.7216 18.7526C43.6903 18.5012 43.5807 17.8488 43.44 17.5189L41.3584 17.4324C41.5304 18.4226 41.601 19.4049 41.6321 20.4738L41.6713 22.5326C41.7026 23.6014 41.6713 24.5917 41.601 25.5817H44.207C44.0738 24.5917 44.0034 23.6014 43.9642 22.5326L43.8938 20.2301C43.8625 19.4049 44.4886 18.8311 45.1148 18.8311C45.8425 18.8311 46.1946 19.3262 46.2262 20.065L46.3356 22.5326C46.3671 23.6014 46.3671 24.5917 46.2965 25.5817" fill="white"/>
<path d="M56.9484 25.5814C56.6355 24.7562 56.4633 23.7662 56.3927 22.6973L56.2516 21.0547C56.1107 19.0822 55.2816 17.762 52.0727 17.762C51.517 17.762 50.7188 17.8485 50.0616 18.0056L50.1633 19.4909C50.8204 19.0822 51.4859 18.7522 52.3232 18.7522C53.1918 18.7522 53.9197 19.1609 53.9903 20.3946C53.1528 20.4811 52.3858 20.6383 51.5172 21.0547C50.547 21.4634 49.5373 22.2886 49.6389 23.6009C49.7406 25.0862 50.8597 25.7463 52.2529 25.7463C53.3327 25.7463 54.0606 25.2512 54.4754 24.7562C54.5457 25.0862 54.6553 25.3298 54.757 25.5814H56.9484ZM53.1528 24.5126C52.3856 24.5126 51.76 24.0961 51.7285 23.1924C51.7285 22.2886 52.2842 21.55 54.0606 21.2984L54.1625 22.6973C54.2015 23.1924 54.2015 23.5225 54.2719 23.9313C54.0218 24.2612 53.6068 24.4263 53.1528 24.5126Z" fill="white"/>
<path d="M39.1982 17.6834C38.6037 17.2669 37.9071 17.1018 37.1794 17.1018C35.4733 17.1018 33.2115 18.3357 33.2819 21.4634C33.3132 24.6699 35.7549 25.6599 37.461 25.6599C38.9556 25.6599 39.8637 25.0861 40.5912 24.3474L40.0668 23.6008C39.6835 23.931 39.0573 24.426 38.0478 24.426C36.9677 24.3474 36.2791 23.6008 35.8956 22.4534L40.6225 20.7245C40.4816 19.1609 39.9261 18.2572 39.1982 17.6834ZM37.5627 20.7247L35.6843 21.4634C35.6453 21.1335 35.614 20.8033 35.614 20.3946C35.614 18.5006 36.6548 18.1706 37.0068 18.1706C37.5627 18.0921 38.0478 18.422 38.2275 19.0821C38.4313 19.821 38.3609 20.4811 37.5627 20.7247Z" fill="white"/>
<path d="M26.4248 42.1477L28.0134 39.7192L33.6637 43.4285L32.075 45.8646L26.4248 42.1477Z" fill="white"/>
<path d="M25.9033 41.3148L26.999 39.6331L34.1754 44.356L33.0796 46.038L25.9033 41.3148Z" fill="#9C824A"/>
<path d="M38.4863 49.8807L40.0749 47.4443L45.725 51.1615L44.1365 53.5979L38.4863 49.8807Z" fill="white"/>
<path d="M37.9619 49.0478L39.0576 47.3662L46.2342 52.0892L45.1385 53.7632L37.9619 49.0478Z" fill="#9C824A"/>
</svg>
