<svg width="85" height="84" viewBox="0 0 85 84" fill="none" xmlns="http://www.w3.org/2000/svg">
<ellipse cx="42.3233" cy="42.0613" rx="41.9825" ry="41.9341" fill="white"/>
<path d="M37.8804 0.318242C43.8422 -0.22095 49.9302 0.359722 55.6004 2.33748C63.2093 4.90901 70.0066 9.77701 74.9697 16.1011C79.8783 22.3116 82.9528 29.9498 83.7317 37.8368C84.0864 42.1023 83.9558 46.4333 83.0659 50.6289C81.8257 56.6496 79.2386 62.3864 75.5441 67.2937C71.732 72.369 66.7668 76.5712 61.1227 79.455C55.2697 82.4522 48.703 84.061 42.1276 83.9933C35.2259 84.0631 28.335 82.2819 22.2688 78.9965C15.2278 75.1873 9.32263 69.2999 5.46919 62.2663C2.80169 57.4027 1.11974 51.9977 0.540934 46.4748C0.020945 40.679 0.479994 34.7479 2.323 29.2097C4.83609 21.2638 9.82741 14.1495 16.3701 9.01953C22.5256 4.14934 30.0844 1.11284 37.8804 0.318242ZM36.3399 1.58436C26.6662 2.95962 17.5582 7.96297 11.2177 15.42C6.65502 20.7704 3.45 27.2953 2.13584 34.2218C1.30902 38.0114 1.47876 41.9189 1.57012 45.7697C2.12496 52.7333 4.62495 59.5049 8.56975 65.2505C15.2343 75.0825 26.3985 81.723 38.2177 82.7469C40.1716 82.8538 42.1298 82.8254 44.0837 82.8145C46.9058 82.8188 49.7061 82.3386 52.4302 81.6314C58.0613 80.1753 63.3551 77.4597 67.859 73.7727C76.3317 66.9007 81.9127 56.4749 82.7069 45.5536C82.7483 41.9713 82.955 38.3411 82.2304 34.809C81.1447 28.5396 78.5315 22.5452 74.6868 17.4851C70.6202 11.9774 65.0761 7.60715 58.8685 4.77366C53.8924 2.55796 48.4615 1.21543 42.998 1.30712C40.7765 1.31367 38.5419 1.25473 36.3399 1.58436ZM15.5759 66.7458C16.1634 65.7001 17.123 64.9448 17.9781 64.1306C18.8201 64.8116 19.5359 65.628 20.3171 66.3747C20.0865 66.6497 19.8493 66.9204 19.6078 67.1867C19.0725 66.8898 18.5874 66.3135 17.9193 66.4357C18.2175 66.9248 18.5482 67.3898 18.8789 67.8591C18.5874 68.0774 18.2892 68.2869 17.9759 68.4724C17.6386 68.2148 17.3667 67.7782 16.9337 67.6997C16.3898 68.0904 15.9916 68.6821 15.3454 68.9222L15.4628 68.7869C15.9328 68.2564 16.4463 67.7673 16.951 67.2697C17.3667 67.6233 17.7801 67.9769 18.2021 68.324C18.3284 68.1101 18.4546 67.8983 18.5808 67.6845C18.2522 67.3352 17.9258 66.9837 17.5995 66.6322C17.8345 66.3943 18.0716 66.1564 18.3066 65.9184C18.6896 66.2742 19.0747 66.6257 19.4641 66.9728C19.6318 66.8047 19.8014 66.6366 19.9711 66.4707C19.3945 65.7241 18.7157 65.0649 17.9802 64.4776C17.1577 65.2089 16.3984 66.0123 15.5759 66.7458ZM65.7942 64.1481C66.1945 64.1786 66.5949 64.1677 66.9974 64.172C67.661 64.3554 67.8307 65.1413 68.3617 65.508C68.7163 65.794 69.1841 65.997 69.3756 66.438C69.5475 66.975 69.541 67.6364 69.1232 68.062C68.5248 68.7628 67.8438 69.3915 67.1519 69.9984C66.2576 69.1841 65.4352 68.2957 64.5627 67.4574C64.2058 67.0797 63.8512 66.6999 63.4921 66.3245C64.2711 65.6128 64.9608 64.803 65.7942 64.1481ZM65.7724 64.4776C65.0761 65.0256 64.4996 65.7067 63.8773 66.3354C64.8999 67.5251 66.0596 68.5904 67.178 69.6862C67.9765 68.8326 69.4104 68.0904 69.2037 66.7327C69.1493 66.1039 68.44 65.9511 68.0222 65.6193C67.7089 65.2744 67.5327 64.8226 67.1802 64.5147C66.782 64.2157 66.1641 64.1262 65.7724 64.4776ZM20.1431 67.4901C20.8001 67.4508 21.4594 67.453 22.1187 67.4901C21.4616 67.5687 20.798 67.5709 20.1431 67.4901ZM21.1091 68.7869C21.5443 68.6602 22.0099 68.8349 22.2384 69.2344C22.5865 70.4 21.4746 71.8276 20.2562 71.6443C19.1356 70.8803 20.0996 69.1841 21.1091 68.7869ZM21.3027 68.9986C20.5978 69.1426 20.1996 69.8674 19.9407 70.4808C19.7297 70.9807 20.2519 71.5832 20.7871 71.3976C21.4159 71.1663 21.888 70.5921 22.1187 69.9721C22.345 69.4745 21.8358 68.8524 21.3027 68.9986ZM57.0647 71.3824C56.6666 70.6183 57.7545 70.4023 58.2136 70.0726C58.9251 71.0506 59.3755 72.1923 60.1 73.1571C60.657 73.3557 61.1575 72.8275 61.6644 72.6528C61.8385 73.0064 62.2693 73.4147 62.0517 73.8316C61.2271 74.4603 60.285 74.9144 59.3711 75.399C58.6444 74.0347 57.7784 72.7511 57.0647 71.3824ZM57.1539 70.913C57.798 72.3647 58.6531 73.7225 59.5104 75.0563C60.3415 74.6372 61.1379 74.1547 61.9321 73.6722C61.8124 73.4278 61.6905 73.1833 61.5665 72.9432C61.1118 73.1876 60.6744 73.4714 60.1914 73.6636C59.9368 73.5958 59.8781 73.2815 59.7301 73.0982C59.2253 72.2032 58.7271 71.3037 58.1853 70.4284C57.8415 70.5856 57.4977 70.7493 57.1539 70.913ZM24.8755 70.5376C26.0852 70.2974 27.6344 70.579 28.1153 71.8713C28.3416 72.5917 28.3198 73.3623 28.1 74.0805C28.0261 74.3926 27.741 74.587 27.543 74.8205C28.0457 73.8448 28.4482 72.5655 27.7106 71.5963C27.1275 70.7034 25.9917 70.6402 25.0365 70.5506L24.8755 70.5376ZM29.0705 72.1005C29.1619 72.0984 29.3446 72.094 29.436 72.0918C30.2411 72.3931 31.0352 72.7271 31.8642 72.9607C32.0818 73.0305 32.2972 73.1026 32.5148 73.1746C32.4974 73.5762 32.4408 73.9757 32.2407 74.3316C31.923 74.2814 31.6053 74.2202 31.2855 74.2334C30.9395 74.5302 30.8612 75.017 30.698 75.4252C30.4761 76.1783 30.2258 76.9227 29.8799 77.63C29.4273 77.5056 28.7615 77.5515 28.4982 77.1258C28.5048 76.3529 28.8224 75.5932 29.1749 74.9165C29.2946 74.7375 29.4143 74.5608 29.5361 74.3862C29.2271 75.2615 28.9225 76.139 28.6353 77.021C29.0008 77.1672 29.3664 77.3134 29.7319 77.4597C30.2215 76.2765 30.6153 75.0563 31.0657 73.86C31.4247 73.9342 31.7837 74.0041 32.1427 74.0761C32.1884 73.8382 32.2363 73.6024 32.282 73.3666C31.3007 72.9737 30.3042 72.6114 29.2881 72.3167C29.2032 72.4498 29.0335 72.7162 28.9486 72.8515C29.2598 73.0632 29.5753 73.2728 29.8777 73.4998C29.8538 73.5653 29.8103 73.6963 29.7863 73.7618C29.4425 73.5391 29.0966 73.323 28.7484 73.1091C28.8572 72.7729 28.9639 72.4368 29.0705 72.1005ZM20.1517 72.9366C20.7131 72.8973 21.2788 72.8799 21.838 72.9454C21.2853 73.0764 20.7087 72.9934 20.1517 72.9366ZM56.7819 74.4189C57.1735 74.4626 57.563 74.5106 57.9525 74.5673C57.8219 75.5693 57.3302 76.6586 56.2967 76.986C55.496 77.2022 54.482 77.2284 53.8771 76.5647C54.7235 76.8616 55.7244 77.1431 56.5491 76.628C57.2388 76.2526 57.5608 75.4995 57.711 74.7637C57.4847 74.7419 57.2562 74.7201 57.0299 74.7027C56.858 74.9646 56.6861 75.2244 56.5099 75.4841C56.5926 75.1261 56.684 74.7725 56.7819 74.4189Z" fill="#BB8A1A"/>
<path d="M36.3402 1.58407C38.5421 1.25444 40.7767 1.31338 42.9982 1.30683C48.4617 1.21514 53.8926 2.55767 58.8688 4.77337C65.0764 7.60686 70.6204 11.9771 74.6871 17.4848C78.5317 22.5449 81.1449 28.5393 82.2307 34.8087C82.9552 38.3408 82.7485 41.971 82.7072 45.5533C81.913 56.4746 76.332 66.9004 67.8593 73.7724C63.3553 77.4594 58.0615 80.1751 52.4305 81.6311C49.7063 82.3383 46.906 82.8186 44.084 82.8142C42.1301 82.8251 40.1718 82.8535 38.2179 82.7466C26.3988 81.7227 15.2346 75.0822 8.57001 65.2502C4.6252 59.5046 2.12521 52.733 1.57038 45.7694C1.47901 41.9186 1.30928 38.0111 2.13609 34.2215C3.45025 27.295 6.65527 20.7701 11.218 15.4197C17.5584 7.96268 26.6664 2.95934 36.3402 1.58407ZM40.248 3.06412C40.248 5.92816 40.2414 8.79002 40.2502 11.6541C42.1692 11.7654 44.0992 11.8003 46.0183 11.6606C46.1749 10.8966 46.1619 10.1107 46.0226 9.34449C45.1936 9.25718 44.3603 9.2288 43.5291 9.2157C43.3464 7.16808 43.6053 5.10737 43.3855 3.06194C42.339 3.03574 41.2924 3.03573 40.248 3.06412ZM32.1452 4.21672C32.0908 4.77119 32.1604 5.32566 32.2844 5.86486C32.7566 8.1133 33.1112 10.388 33.6704 12.6189C35.4698 12.3788 37.2693 12.0405 39.0186 11.5515C38.9403 10.9184 38.8076 10.2963 38.6444 9.68067C38.3833 9.70031 38.1222 9.73743 37.8654 9.78982C37.2627 9.77235 36.6622 9.75926 36.0595 9.72215C36.0965 9.50603 36.1313 9.28992 36.1683 9.07599C36.4903 8.95375 36.8341 8.8446 37.0756 8.58483C37.4499 8.51279 37.8241 8.45385 38.2005 8.39491C38.2157 7.692 38.0983 6.99345 37.811 6.34947C37.4564 6.42151 37.1017 6.49791 36.7471 6.57431C36.2336 6.54594 35.707 6.51538 35.2414 6.27744C35.6309 6.0264 36.066 5.84739 36.4229 5.54615C36.8493 5.46756 37.2758 5.36714 37.6848 5.21652C37.4847 4.61838 37.5913 3.7823 37.1082 3.35445C35.4437 3.56838 33.8206 4.05081 32.1452 4.21672ZM49.3517 4.54852C48.1571 5.08335 47.7938 6.62452 48.2224 7.77931C48.6032 8.62848 49.4256 9.1262 50.0697 9.75271C49.9261 10.1784 49.6498 10.532 49.2973 10.8049C49.0623 10.3574 48.8338 9.90551 48.6162 9.44709C48.0048 9.53441 47.413 9.72215 46.8582 9.98847C47.0105 10.532 47.1715 11.093 47.537 11.5362C48.4117 12.6866 50.0893 12.9944 51.4013 12.5207C52.5023 12.1278 53.2094 10.914 53.0571 9.76144C52.9266 9.10219 52.5588 8.49314 52.0606 8.04782C52.6393 7.89501 53.2116 7.70291 53.7425 7.42131C54.1907 5.12264 51.2512 3.47233 49.3517 4.54852ZM26.2465 6.52411C26.4663 7.27941 26.8557 7.96486 27.2104 8.66123C27.0624 8.91445 27.045 9.2921 26.7665 9.44055C26.5054 9.47111 26.2421 9.44927 25.981 9.43836C25.6111 8.69179 25.3044 7.91465 24.9127 7.17899C24.0489 7.51298 23.1568 7.82734 22.4236 8.41456C23.1111 9.94481 23.84 11.4554 24.5646 12.9682C25.0454 13.9658 25.4349 15.0115 26.0376 15.9458C26.9079 15.6904 27.7217 15.2756 28.4876 14.7975C28.2134 14.0444 27.8305 13.3437 27.4737 12.632C27.5085 12.3526 27.5455 12.0754 27.5846 11.796C27.8849 11.6606 28.1873 11.5209 28.4832 11.3768C28.9315 12.2893 29.3079 13.2389 29.7866 14.1383C30.6895 13.9353 31.4968 13.4637 32.2931 13.0119C31.2096 10.436 29.9106 7.95831 28.7531 5.41517C27.8414 5.58762 27.0472 6.08315 26.2465 6.52411ZM56.7147 7.35582C55.7051 9.48639 54.5454 11.5449 53.5793 13.6951C55.1285 14.6556 56.7821 15.4459 58.4445 16.1815C58.8013 15.6227 59.0994 15.0267 59.2756 14.3871C58.6838 14.075 58.0789 13.7868 57.4849 13.4834C57.498 13.1385 57.5197 12.7958 57.5459 12.453C58.0202 12.5534 58.4967 12.6539 58.9732 12.7455C59.2386 12.8853 59.5041 13.0228 59.7739 13.1581C60.183 12.6058 60.5028 11.9881 60.6573 11.3135C60.1177 11.0057 59.5672 10.7176 59.0124 10.436C58.9884 10.2068 58.9667 9.97537 58.9471 9.74397C59.3779 9.79855 59.8087 9.85094 60.2417 9.90551C60.5681 10.0758 60.8966 10.2373 61.2317 10.3923C61.606 9.8182 61.9519 9.21788 62.1195 8.54553C60.5985 7.77931 59.1037 6.95634 57.5567 6.25123C57.0933 6.39095 56.9584 6.98035 56.7147 7.35582ZM18.0001 11.5493C15.9157 12.2631 14.5601 14.743 15.265 16.8757C15.6959 18.1091 16.5467 19.218 17.6759 19.8838C20.0106 21.1609 23.5006 19.8467 23.9967 17.1027L24.2382 17.1486C24.2882 16.4107 24.6625 15.3062 23.9945 14.8019C23.9532 14.7015 23.8705 14.4963 23.827 14.3959C23.1916 14.4679 22.5585 14.5858 21.9514 14.791C22.0885 15.8432 22.1037 17.1617 20.9766 17.6812C20.7242 17.4302 20.215 17.452 19.9714 17.7052C19.1598 17.3843 18.4526 16.8037 18.0436 16.0244C17.6324 15.3367 17.6759 14.3522 18.3112 13.8087C19.0228 13.8108 19.7364 13.7475 20.424 13.5576C20.4892 13.5663 20.622 13.586 20.6872 13.5947C20.8221 12.8809 20.9657 12.1605 20.9222 11.4314C19.9539 11.3332 18.9444 11.2393 18.0001 11.5493ZM65.3506 13.407C63.3945 14.4788 61.3601 15.4066 59.4366 16.5374C59.8479 17.0001 60.2287 17.5852 60.8444 17.7816C61.223 17.6878 61.5603 17.4848 61.9106 17.321C62.2783 17.3931 62.72 17.3494 63.0094 17.631C63.3793 17.9563 63.24 18.4998 63.2726 18.9342C63.2074 19.2311 62.8766 19.5891 63.1486 19.8707C63.6969 20.5256 64.3431 21.1063 65.0829 21.5385C65.727 19.5935 66.3776 17.6528 66.9933 15.6991C67.3632 14.4919 67.8789 13.324 68.103 12.0732C67.1239 12.3788 66.2535 12.9311 65.3506 13.407ZM41.3207 12.8547C36.5512 12.9311 31.821 14.2911 27.6804 16.6596C21.6446 20.1065 16.9057 25.7844 14.621 32.3704C13.1218 36.5748 12.6975 41.124 13.1871 45.5511C13.9117 51.742 16.6772 57.6862 20.9853 62.1831C25.4871 67.0293 31.7187 70.1901 38.2571 71.0481C43.2985 71.6899 48.5183 71.0851 53.2225 69.1249C59.1821 66.6778 64.2626 62.17 67.4589 56.5663C71.432 49.6769 72.3393 41.1284 70.0199 33.5317C68.0529 26.9086 63.5947 21.1019 57.7961 17.3931C52.9287 14.2583 47.1018 12.6495 41.3207 12.8547ZM7.60176 29.2509C5.79149 29.7683 4.52085 31.6784 4.72755 33.5535C4.86243 35.0729 5.92204 36.4547 7.34499 36.9873C8.87462 37.5876 10.7415 37.1249 11.8229 35.8871C13.1023 34.514 13.1871 32.235 12.0688 30.7397C11.094 29.3601 9.20322 28.7619 7.60176 29.2509ZM74.3998 29.2466C72.6505 29.7377 71.3319 31.5015 71.4951 33.3418C71.4777 35.6514 73.7841 37.5702 76.0404 37.2165C78.1314 37.0266 79.8286 34.9987 79.6023 32.8921C79.5588 30.3577 76.7802 28.4585 74.3998 29.2466ZM6.80758 47.6576C6.29193 47.6358 5.60221 47.6074 5.37375 48.1881C5.10388 48.9347 4.82324 49.6769 4.49909 50.4038C4.24665 50.9561 4.721 51.4189 5.08867 51.7638C5.02129 52.1502 4.88197 52.5409 4.96034 52.9382C5.09744 53.353 5.51518 53.5538 5.83068 53.8158C6.30503 54.1432 6.68358 54.5907 7.16005 54.916C7.63662 55.1758 8.14361 54.8789 8.60486 54.7348C9.02038 55.0011 9.54258 55.3635 10.0366 55.0492C10.7002 54.6191 11.3594 54.1825 12.0448 53.7852C12.5844 53.4556 12.43 52.757 12.3886 52.2309C12.7955 51.9668 13.3024 51.5957 13.1719 51.0325C12.9586 50.2292 12.7281 49.4324 12.5497 48.6225C12.3974 48.0659 11.7424 48.0047 11.2768 47.8869C11.0896 47.4153 10.8852 46.7845 10.278 46.7604C9.43168 46.7473 8.59177 46.6448 7.74752 46.6142C7.18835 46.6186 7.00774 47.2429 6.80758 47.6576ZM74.117 46.874C73.7253 47.053 73.6884 47.5289 73.5556 47.8869C73.0574 48.0069 72.3437 48.0331 72.2001 48.6443C72.0217 49.4542 71.7867 50.251 71.5865 51.0565C71.4908 51.6219 71.9847 51.9908 72.3676 52.3052C72.3372 52.757 72.1805 53.3137 72.5634 53.6673C72.9682 54.0035 73.4642 54.1978 73.8885 54.5056C74.3433 54.7981 74.7937 55.2653 75.3877 55.1627C75.6771 55.0557 75.9012 54.833 76.1449 54.6497C76.5996 54.9335 77.2067 55.2456 77.7006 54.8527C78.2881 54.3462 78.8842 53.8463 79.4956 53.3683C80.0048 52.9688 79.7567 52.2812 79.6414 51.7572C80.057 51.4451 80.5052 50.9452 80.2441 50.3863C79.9156 49.6551 79.6523 48.8976 79.3542 48.1532C79.0996 47.5987 78.4447 47.6402 77.9356 47.6445C77.7702 47.2538 77.6201 46.7212 77.137 46.636C76.5583 46.5705 75.9839 46.7343 75.4073 46.7299C74.9764 46.7561 74.513 46.6622 74.117 46.874ZM65.7944 64.1478C64.9611 64.8027 64.2713 65.6125 63.4924 66.3242C63.2944 66.5075 63.0986 66.693 62.9049 66.8829C62.6482 67.1428 62.3849 67.3959 62.1216 67.6492C62.5764 68.8848 64.0538 69.6335 64.0298 71.0328C63.8928 71.0153 63.6164 70.9826 63.4772 70.9673C62.6895 70.1553 62.1151 69.162 61.408 68.2823C60.8749 68.4722 60.4419 68.8433 60.0132 69.2013C60.6573 70.1749 61.2948 71.1856 62.1782 71.9606C62.2174 72.0347 62.2979 72.1788 62.3392 72.253C63.3009 72.9516 65.0155 72.6591 65.3593 71.393C65.8249 71.3057 65.8292 70.2229 65.3701 70.1225C65.3005 69.7842 65.1047 69.4938 64.9023 69.2253C64.7304 68.6511 64.4498 68.0727 64.5629 67.4571C65.4354 68.2954 66.2579 69.1838 67.1522 69.9981C67.8441 69.3912 68.5251 68.7625 69.1235 68.0617C69.5412 67.6361 69.5477 66.9747 69.3759 66.4377C69.1844 65.9967 68.7166 65.7937 68.3619 65.5077C67.831 65.141 67.6613 64.3552 66.9977 64.1717C66.9454 63.6915 65.8749 63.6937 65.7944 64.1478ZM15.5762 66.7455C15.2106 67.086 14.8713 67.4527 14.534 67.8216C14.8407 68.1447 15.1519 68.4656 15.4631 68.7866L15.3456 68.9219C15.9918 68.6818 16.39 68.0901 16.934 67.6994C17.3669 67.778 17.6389 68.2145 17.9762 68.4722L17.8608 68.5399C18.0589 68.6621 18.2568 68.7843 18.4548 68.9066C18.2568 69.6925 17.9653 70.5525 18.4135 71.3122L18.5115 71.0808C19.0727 72.4954 20.9092 73.2201 22.2321 72.4365C22.3887 72.4604 22.6977 72.5085 22.8522 72.5325C22.8892 73.3926 22.9958 74.3727 23.8226 74.8486C24.7909 75.8549 26.6099 75.8942 27.5433 74.8202C27.7413 74.5867 28.0263 74.3923 28.1003 74.0803C28.3832 73.6917 28.7726 73.3817 29.2404 73.6807C29.2034 74.0912 29.1795 74.5037 29.1752 74.9162C28.8227 75.593 28.505 76.3526 28.4985 77.1255C28.7618 77.5512 29.4276 77.5053 29.8801 77.6297C30.2261 76.9224 30.4763 76.178 30.6982 75.4249C31.1291 74.8879 31.7035 74.519 32.3715 74.3531L32.2409 74.3313C32.4411 73.9754 32.4977 73.5759 32.5151 73.1743C32.2975 73.1023 32.0821 73.0302 31.8645 72.9604C31.3227 72.2159 30.2914 72.0806 29.4363 72.0915C29.3449 72.0938 29.1621 72.0981 29.0707 72.1002C28.7465 72.0413 28.4289 71.9628 28.1155 71.871C27.6347 70.5787 26.0855 70.2972 24.8757 70.5373C24.5472 70.5373 24.2447 70.701 23.9401 70.8036C23.9271 70.188 23.9118 69.5527 23.6181 68.9961C23.5833 69.09 23.5136 69.2799 23.481 69.376C23.159 68.6905 22.6912 68.005 21.9144 67.8107C21.2334 67.6623 20.424 67.5969 19.817 68.016C19.5471 67.957 19.2751 67.898 19.0053 67.8391C19.2055 67.6208 19.4057 67.4025 19.608 67.1864C19.8496 66.9201 20.0867 66.6494 20.3174 66.3744C19.5362 65.6277 18.8204 64.8114 17.9784 64.1303C17.1232 64.9446 16.1637 65.6998 15.5762 66.7455ZM20.1433 67.4898C20.7982 67.5706 21.4618 67.5685 22.1189 67.4898C21.4597 67.4527 20.8004 67.4505 20.1433 67.4898ZM57.065 71.3821C57.7787 72.7508 58.6446 74.0344 59.3714 75.3987C60.2852 74.9141 61.2274 74.46 62.052 73.8313C62.2696 73.4144 61.8388 73.0061 61.6647 72.6525C61.1577 72.8272 60.6573 73.3554 60.1003 73.1568C59.3757 72.192 58.9253 71.0503 58.2138 70.0723C57.7547 70.402 56.6668 70.618 57.065 71.3821ZM52.4957 74.1522C52.4696 74.9098 52.7721 75.7196 53.4248 76.1453C53.5662 76.2937 53.7164 76.4334 53.8774 76.5644C54.4823 77.2281 55.4962 77.2019 56.2969 76.9857C57.3304 76.6583 57.8222 75.569 57.9527 74.567C57.5633 74.5103 57.1738 74.4623 56.7821 74.4186C56.6842 74.7722 56.5928 75.1258 56.5102 75.4838C56.4579 75.5602 56.3535 75.7152 56.3013 75.7916C55.9205 75.6759 55.5289 75.593 55.1611 75.4446C54.7173 75.0778 54.5954 74.4775 54.3952 73.9666C54.6041 73.6851 54.7978 73.386 55.0632 73.1568C55.5419 73.1634 56.0054 73.3008 56.4666 73.4166C56.7582 73.0652 56.9888 72.6678 57.028 72.205C56.4471 71.9235 55.8422 71.6113 55.1807 71.6615C53.8643 71.7575 52.6894 72.8424 52.4957 74.1522ZM20.152 72.9363C20.709 72.9931 21.2856 73.0761 21.8383 72.9451C21.2791 72.8796 20.7134 72.897 20.152 72.9363ZM33.1569 73.3817L33.3267 73.4254C33.1918 73.8684 33.0677 74.3159 32.9807 74.77C32.613 75.2437 32.4454 75.8178 32.5977 76.4116C32.3976 77.0927 32.1909 77.7825 32.1996 78.5029C32.1626 78.8762 32.811 78.9701 32.9698 78.6688C33.2505 78.778 33.5442 78.8631 33.8423 78.9176C34.2601 79.4263 35.1631 79.363 35.6309 78.9526C36.3445 78.3566 36.4642 77.4202 36.3184 76.5491C36.3402 76.4793 36.3815 76.3396 36.4033 76.2719C36.486 76.2369 36.6513 76.1671 36.7362 76.1322C37.08 75.3114 36.7057 74.2308 35.8289 73.9427C35.0608 73.3729 34.0795 73.2856 33.1569 73.3817ZM39.3646 73.9077C38.7292 75.0647 38.1983 76.2741 37.5848 77.442C37.2714 78.0642 36.8841 78.6732 36.8015 79.3804C36.8559 79.8083 37.8328 79.804 37.8306 79.3521C38.1026 79.0181 38.3702 78.6797 38.6422 78.3457C39.3145 78.4155 39.456 79.1556 39.7018 79.6621C40.2153 79.7123 40.7288 79.745 41.2467 79.7669C41.0269 78.6841 40.6244 77.6515 40.3176 76.5928C40.0326 75.6868 39.8433 74.7395 39.3646 73.9077ZM45.6897 74.2504C45.396 74.8006 45.6745 75.4228 45.7507 75.9947C46.0074 77.0621 45.8507 78.2366 46.4339 79.2146L46.4491 79.4285L46.5731 79.5922C47.4282 79.7646 48.3203 79.435 49.1101 79.112C49.3386 79.0661 49.5649 79.0115 49.7912 78.9504C49.7324 78.5181 49.6693 78.0881 49.5975 77.6581C49.108 77.5489 48.6075 77.5512 48.1114 77.5576C47.9852 76.9224 47.9265 76.2762 47.8656 75.6345C47.7916 75.3528 47.8764 74.8595 47.4826 74.8093C47.45 74.5605 47.4195 74.3138 47.3891 74.0649C46.8408 73.7856 46.1923 73.9514 45.6897 74.2504ZM41.9604 74.3989C41.943 75.1368 41.8559 75.9074 42.1497 76.608C42.1562 77.0555 42.1714 77.5053 42.2019 77.9528C41.882 78.5269 42.0757 79.2146 42.1431 79.8279C43.3115 79.9436 44.4821 79.7865 45.6397 79.6205C45.668 79.1709 45.6745 78.7234 45.6614 78.2759C45.087 78.2475 44.5148 78.2257 43.9404 78.2104C43.9208 76.9355 44.0274 75.6541 43.8446 74.388C43.2202 74.2723 42.5826 74.2745 41.9604 74.3989ZM45.6288 19.4538C46.0814 19.9973 46.2707 20.7352 46.8451 21.1849C48.1484 22.4532 50.0653 22.5383 51.7625 22.7806C52.1171 23.5054 52.796 23.9507 53.4031 24.444C52.9744 25.5377 52.1715 26.4109 51.5188 27.367C51.1293 27.1138 50.7507 26.5222 50.2307 26.7711C49.5127 27.116 49.1188 27.963 49.2842 28.7423C49.7564 28.7838 50.2307 28.7947 50.7029 28.7641C50.6942 29.1243 50.6811 29.4823 50.6855 29.8425C50.7072 30.2856 50.7616 30.7244 50.8138 31.1654C50.098 30.7462 49.2646 30.0564 48.3943 30.4559C47.4282 30.9493 47.463 32.2678 47.7241 33.1715C47.8743 33.8504 48.4443 34.2957 49.047 34.5664C49.6998 34.5402 50.2111 34.132 50.6876 33.7304C50.8334 34.0949 50.977 34.4595 51.1097 34.8306C51.0989 35.5007 51.0815 36.2735 50.544 36.7581C49.8739 37.4829 48.8295 37.4741 47.9243 37.5265C47.7263 38.8057 48.6859 39.7881 48.8382 41.0018C49.1885 43.1607 49.4996 45.3895 50.5984 47.3193C51.1924 48.5832 52.35 49.5896 53.7381 49.8493C54.7999 50.0676 56.0445 49.7533 56.6864 48.8255C57.2804 47.924 57.2739 46.7364 56.9518 45.7366C56.3013 43.8637 54.5715 42.663 53.7577 40.8839C53.2812 39.8405 53.3139 38.5394 53.9818 37.5855C54.8848 36.2495 56.2578 35.3545 57.4088 34.2564C57.9788 33.6998 58.5271 33.0318 58.6381 32.2154C58.7795 30.8117 57.2956 29.4779 55.9161 29.8949C55.1938 30.0717 54.8761 30.803 54.5497 31.3946C54.4126 31.6238 54.2712 31.853 54.1298 32.0779C54.1298 31.4317 54.1428 30.7812 54.2669 30.1459C54.4714 29.836 54.6933 29.5391 54.9436 29.2618C56.582 27.8473 59.4453 28.1944 60.6377 30.039C61.0837 31.1719 61.0859 32.5123 60.4288 33.5666C59.354 35.3217 57.4436 36.2582 55.9727 37.6182C55.4919 38.0483 55.1742 38.618 54.9022 39.1943C55.927 38.4543 57.0737 37.7601 58.3922 37.8474C59.4105 37.9631 60.2787 38.6093 60.8596 39.4322C61.4232 40.718 61.0032 42.2112 59.948 43.0974L59.7848 43.2655C59.9197 42.4207 60.2308 41.4166 59.5955 40.6962C58.8688 39.6025 57.102 39.5392 56.2947 40.5652C55.8748 41.0324 55.8748 41.696 55.8813 42.2854C56.8866 43.6999 58.2595 44.942 58.6664 46.6993C59.1124 48.1423 58.562 49.9017 57.1912 50.6265C55.5658 51.5018 53.5924 51.1548 51.9496 50.5042C51.8278 50.4344 51.5841 50.2968 51.4622 50.227C51.0031 49.9323 50.544 49.6376 50.0653 49.3713C50.2851 50.716 50.9814 52.0039 52.1324 52.7614C53.2159 53.5167 54.5954 53.4731 55.8313 53.2067C55.5114 53.6193 55.172 54.0188 54.8848 54.4576C53.3269 56.6231 53.4118 59.4063 53.5706 61.9429C53.6555 62.6655 52.9396 62.886 52.3761 62.9929C51.8647 63.0388 51.7081 63.5758 51.4644 63.9382L51.3317 63.7919L51.2272 63.674C51.1271 63.3968 51.0379 63.1152 50.9487 62.8358C50.7986 62.8205 50.5005 62.7899 50.3504 62.7746C49.6737 62.7288 49.3647 63.34 49.1058 63.8552C48.9926 63.9469 48.7642 64.1281 48.651 64.2197C48.6206 63.6828 48.5945 63.1479 48.5705 62.6131C48.1528 62.6437 47.7328 62.6764 47.3194 62.7419C46.9495 62.7834 46.6188 62.9602 46.3077 63.1523C46.1358 63.5496 46.0052 63.9643 45.8464 64.3704C45.7768 64.2613 45.6397 64.0451 45.5701 63.9382C45.5744 62.9034 44.9325 61.4998 45.9878 60.7794C47.2128 59.9848 48.7468 60.2795 50.1241 60.1376C50.7855 59.0265 51.3752 57.7931 51.3404 56.4703C51.3077 55.7237 51.0815 54.9073 50.4744 54.4248C49.7781 54.1498 48.9796 54.3004 48.2855 54.0079C47.6697 53.5691 47.5697 52.7068 47.0213 52.2135C46.4861 52.0236 45.9051 52.0432 45.3459 52.0389C43.9578 52.2135 42.426 52.8662 41.8081 54.2065C41.4295 55.0753 42.1801 55.9005 42.9417 56.2105C43.3181 56.3786 43.7075 56.5117 44.0927 56.658C43.9164 56.7388 43.7358 56.8152 43.5574 56.8916C42.8416 57.1928 42.0496 57.4548 41.5556 58.0922C40.7506 59.1138 40.7615 60.5197 40.0587 61.5959C39.5887 62.2682 38.6531 62.0499 37.9808 62.3402C37.5913 62.7244 37.5586 63.3269 37.3563 63.8159C37.2214 63.2855 37.0887 62.7528 36.9603 62.2224C36.5121 62.2136 36.066 62.2027 35.62 62.218C35.0782 62.5323 34.6604 63.017 34.4994 63.6304C34.4581 63.7439 34.3732 63.9687 34.3319 64.0823C34.2731 63.9884 34.1556 63.8006 34.0969 63.7068C34.1143 63.1981 34.1622 62.6917 34.2122 62.1874C33.6574 62.194 33.1025 62.194 32.5499 62.2355C32.4324 62.3097 32.1952 62.4581 32.0755 62.5345C31.6077 62.7463 31.8558 63.7111 31.2618 63.5998L31.227 63.4536C31.1639 62.5782 31.0268 61.7072 30.9855 60.8296C30.9398 60.3625 31.2291 59.9041 31.6621 59.7382C33.3049 59.1116 35.2087 60.0896 36.7753 59.1771C38.4355 58.173 38.8424 56.0948 39.2427 54.3419C38.5965 53.8725 37.6196 53.4709 37.6261 52.5278C37.526 51.7834 37.8633 51.0543 38.4377 50.5894C40.3938 48.8495 43.0679 48.3387 45.2132 46.9067C45.9225 46.4483 46.5361 45.6166 46.275 44.7303C46.1031 43.8811 45.2916 43.4642 44.5779 43.1455C44.641 43.772 44.8129 44.4072 44.6997 45.0381C44.221 45.7279 43.2637 45.6821 42.5413 45.944C42.3868 45.7126 42.2302 45.4812 42.0778 45.2498C41.7123 44.6888 41.4077 44.0951 41.09 43.5078C39.7693 45.1472 38.1614 46.7102 36.0421 47.1905C35.6069 46.8609 35.2087 46.4396 34.6757 46.2737C33.2179 46.0597 31.5011 47.0835 31.5359 48.6946C31.4054 48.7295 31.1465 48.795 31.0159 48.8299L31.0072 48.6422C30.9789 48.1161 30.9354 47.5922 30.8897 47.0682C30.3632 47.2276 29.8518 47.4372 29.3536 47.6707C29.4167 47.1643 29.4972 46.66 29.5842 46.158C29.2927 46.2256 29.0011 46.2955 28.7139 46.3806C28.5594 46.4636 28.2526 46.6295 28.1003 46.7124C28.2156 46.123 28.4593 45.5729 28.7618 45.0577C28.3418 45.097 27.9219 45.1254 27.515 45.2389L27.2343 45.3393C27.3627 44.4749 28.1634 43.9204 28.9336 43.6606C30.4828 43.2895 32.193 43.748 33.6487 42.9621C34.8214 42.329 35.9442 41.6021 37.1126 40.9581C38.5073 40.1286 39.9695 39.4126 41.2858 38.4565C40.3611 38.3888 39.4277 38.3189 38.5421 38.0264C38.3615 37.6968 38.1744 37.3715 37.9851 37.0485C37.5412 37.544 37.0952 38.0679 36.4838 38.3582C35.8571 38.6791 35.1348 38.6638 34.4494 38.6857C34.0577 38.3997 33.6813 38.0985 33.3332 37.7623C33.9315 37.5789 34.9933 37.8147 35.1282 36.9852C35.348 36.2626 34.6822 35.7605 34.1121 35.5007C33.1374 35.1144 32.1125 34.8851 31.0942 34.6516C31.0921 37.2275 31.0768 39.8034 31.1095 42.3792C30.8636 42.4185 30.6177 42.4578 30.374 42.4928C30.2087 39.8274 30.3762 37.1532 30.3001 34.4835C29.9889 34.4507 29.6756 34.4202 29.3666 34.3831C28.975 34.3307 28.5289 34.2761 28.2591 33.9552C28.0329 33.4771 27.8914 32.9663 27.6934 32.4773C27.4062 31.9316 28.0394 31.4077 27.824 30.8554C27.7522 30.4821 27.6173 30.063 27.8566 29.7203C28.1264 29.1789 28.7987 29.1003 29.3362 29.1461C29.6691 29.1527 30.002 29.1658 30.3349 29.1767C30.3349 29.0217 30.3371 28.7095 30.3371 28.5546C30.0042 28.5349 29.6713 28.5174 29.3405 28.4956C28.8553 28.4738 28.3766 28.3865 27.9088 28.262C28.1917 28.0656 28.5007 27.9149 28.8183 27.7861C28.5942 27.6181 28.3679 27.4543 28.159 27.2688C27.428 26.2581 26.9428 25.0072 27.1429 23.7411C27.2539 22.5711 28.0611 21.6498 28.8423 20.8422C30.5285 19.9384 32.6565 20.8836 33.5747 22.4575C34.3254 24.1646 33.8793 26.3345 32.3932 27.4936C31.9385 27.9171 31.2074 28.0961 31.0029 28.7401C31.0768 29.0959 31.0747 29.4954 31.2835 29.8076C31.7883 30.1743 32.415 30.3075 32.9981 30.5061C33.801 30.8248 34.643 31.1064 35.3654 31.5932C36.2031 32.3529 37.0887 33.0864 37.7458 34.0185C38.1983 34.6581 38.194 35.4767 38.3202 36.2233C39.3167 36.0508 39.9064 35.086 39.9782 34.1342C39.9803 33.6016 39.6801 33.0231 40.0217 32.5385C40.6875 31.3116 41.4926 30.0957 41.6449 28.6724C40.6135 28.1987 39.3929 27.7076 39.0556 26.496L38.9751 26.3083C39.4473 26.5681 39.8585 26.9632 40.3916 27.0942C40.855 27.1509 41.3033 26.9719 41.7362 26.8278C43.0135 26.52 43.8555 24.9592 43.1919 23.7673C42.8198 22.9924 41.8537 23.1692 41.1531 23.1452C41.7341 22.2436 42.8699 22.1236 43.8446 22.1366C44.245 22.1301 44.6475 22.1214 45.05 22.1126C45.0609 21.1958 45.2285 20.2833 45.6288 19.4538ZM29.7539 22.9858C29.5538 23.2631 29.3275 23.525 29.1752 23.8328C28.9967 24.2978 29.3144 24.7366 29.4798 25.1513C30.0303 25.5792 30.5503 26.0747 30.6874 26.7929C31.8601 26.2253 32.7675 24.7213 32.1648 23.4486C31.71 22.558 30.5155 22.4008 29.7539 22.9858ZM47.2259 24.3938C47.7437 25.0269 48.6837 25.7232 49.5127 25.2714C49.0927 24.9265 48.6728 24.5576 48.5118 24.0162C48.0701 24.0751 47.3325 23.7695 47.2259 24.3938ZM49.034 23.9856C48.9622 24.4593 49.2233 24.7889 49.6954 24.8413C49.8151 24.5357 49.9348 24.2323 50.0523 23.9267C49.7129 23.9441 49.3734 23.9638 49.034 23.9856ZM28.4354 29.8381C28.4093 30.2071 28.3875 30.576 28.3766 30.9471C29.1229 31.0431 29.8801 31.0366 30.6243 30.9187C30.0607 30.314 29.3514 29.5587 28.4354 29.8381ZM28.6682 31.4666C28.2243 31.5976 28.418 32.1324 28.3462 32.473C29.1164 32.7327 29.9824 32.497 30.646 32.0669C30.0346 31.7439 29.371 31.4579 28.6682 31.4666ZM28.6377 33.0995C28.6399 33.2719 28.6443 33.6212 28.6464 33.7958C29.2448 33.798 29.8388 33.6911 30.398 33.4684C29.9041 33.0711 29.2513 32.8048 28.6377 33.0995Z" fill="#00318A"/>
<path d="M40.2485 3.06407C41.2929 3.03569 42.3395 3.03569 43.386 3.06189C43.6058 5.10732 43.3469 7.16803 43.5296 9.21565C44.3608 9.22875 45.1942 9.25713 46.0232 9.34445C46.1624 10.1107 46.1755 10.8965 46.0188 11.6606C44.0997 11.8003 42.1698 11.7653 40.2507 11.654C40.242 8.78997 40.2485 5.92811 40.2485 3.06407ZM40.4508 3.21906C40.4487 5.98705 40.4465 8.75287 40.4508 11.5209C42.259 11.6518 44.078 11.5907 45.8883 11.5514C45.9187 10.9991 45.91 10.4447 45.8056 9.90328C45.8273 9.80723 45.873 9.61732 45.8948 9.52345C45.007 9.50162 44.1193 9.5038 43.2337 9.5038C43.1141 7.43217 43.3012 5.35181 43.1511 3.28454C43.0793 3.24743 42.94 3.16885 42.8682 3.13174C42.061 3.14484 41.2537 3.1361 40.4508 3.21906ZM35.1266 5.84734C35.553 5.72727 35.986 5.62469 36.4234 5.5461C36.0665 5.84734 35.6314 6.02635 35.2419 6.27739C35.7075 6.51533 36.2341 6.54589 36.7476 6.57427C36.282 6.67032 35.8185 6.76418 35.3529 6.86241C35.2767 6.52406 35.2006 6.1857 35.1266 5.84734ZM27.2109 8.66118C27.311 8.87511 27.4067 9.09122 27.5046 9.30516C27.0912 9.52563 26.6735 9.73956 26.2535 9.94913C26.1622 9.77885 26.0708 9.60858 25.9816 9.43831C26.2427 9.44923 26.5059 9.47106 26.767 9.4405C27.0455 9.29205 27.0629 8.91441 27.2109 8.66118ZM58.9171 9.28332C59.3654 9.47543 59.8092 9.68063 60.2422 9.90547C59.8092 9.85089 59.3784 9.7985 58.9476 9.74393C58.9672 9.97532 58.9889 10.2067 59.0129 10.4359C58.8366 10.3464 58.6626 10.2547 58.4907 10.1609C58.6321 9.86836 58.7735 9.57584 58.9171 9.28332ZM61.9111 17.321C62.133 17.214 62.355 17.1114 62.5769 17.0088C62.9337 17.2992 63.2884 17.5939 63.6409 17.8907C63.5234 18.24 63.4037 18.5893 63.2732 18.9342C63.2405 18.4998 63.3798 17.9562 63.0099 17.631C62.7205 17.3494 62.2788 17.393 61.9111 17.321ZM17.9201 66.4354C18.5881 66.3132 19.0732 66.8895 19.6085 67.1864C19.4062 67.4025 19.206 67.6208 19.0059 67.8391C19.2756 67.898 19.5476 67.957 19.8175 68.0159C18.8121 68.6926 18.3792 69.8954 18.512 71.0808L18.4141 71.3122C17.9658 70.5525 18.2573 69.6925 18.4554 68.9066C18.2573 68.7843 18.0594 68.662 17.8613 68.5398L17.9767 68.4721C18.2899 68.2866 18.5881 68.0771 18.8796 67.8588C18.5489 67.3894 18.2182 66.9244 17.9201 66.4354ZM52.4963 74.1522C52.6899 72.8424 53.8649 71.7575 55.1812 71.6615C55.8427 71.6112 56.4476 71.9234 57.0285 72.205C56.9894 72.6677 56.7587 73.0651 56.4672 73.4165C56.0059 73.3008 55.5424 73.1634 55.0637 73.1568C54.7983 73.386 54.6046 73.6851 54.3958 73.9666C54.5959 74.4775 54.7178 75.0778 55.1617 75.4446C55.5294 75.5929 55.921 75.6759 56.3018 75.7916C55.7796 75.7916 55.0942 75.9903 54.7526 75.4619C54.3305 74.8529 53.9171 73.9011 54.498 73.2616C54.9789 72.6896 55.7992 73.0324 56.4389 73.017C56.5542 72.8032 56.6695 72.5913 56.787 72.3796C56.1604 72.1679 55.5011 71.7684 54.8244 71.9955C53.7582 72.2225 52.7791 73.2266 52.901 74.3727C52.901 75.0014 53.1795 75.582 53.4253 76.1452C52.7726 75.7195 52.4701 74.9097 52.4963 74.1522ZM33.1575 73.3817C34.08 73.2855 35.0613 73.3729 35.8294 73.9427C35.0004 73.7483 34.1518 73.648 33.3272 73.4253L33.1575 73.3817ZM45.6903 74.2504C46.1929 73.9513 46.8413 73.7855 47.3896 74.0648C46.863 74.1828 46.3343 74.2854 45.8056 74.3902C45.8861 76.0142 46.3082 77.5948 46.4344 79.2145C45.8513 78.2365 46.0079 77.0621 45.7512 75.9946C45.675 75.4227 45.3965 74.8006 45.6903 74.2504ZM41.9609 74.3989C42.5832 74.2744 43.2207 74.2722 43.8451 74.3879C44.0279 75.6541 43.9213 76.9354 43.9409 78.2104C44.5153 78.2256 45.0875 78.2474 45.662 78.2758C45.675 78.7233 45.6685 79.1709 45.6402 79.6205C44.4827 79.7864 43.3121 79.9436 42.1436 79.8279C42.0762 79.2145 41.8825 78.5269 42.2024 77.9527L42.4004 77.8502C42.4069 78.3566 42.4134 78.863 42.4374 79.3694C42.5897 79.9916 43.4339 79.6402 43.8539 79.5049C44.3304 79.4874 44.8047 79.4721 45.2834 79.4765L45.5379 79.4874C45.5118 79.1315 45.4879 78.7779 45.4661 78.4264C44.9004 78.4155 44.3347 78.4112 43.7712 78.4068C43.7581 77.1232 43.7581 75.8353 43.6015 74.5582C43.1184 74.5517 42.6376 74.5539 42.1545 74.5669C42.1502 75.2459 42.1502 75.9269 42.1502 76.608C41.8564 75.9073 41.9435 75.1367 41.9609 74.3989ZM34.463 74.674C34.8611 74.7024 35.4225 74.9403 35.3072 75.4336C35.3507 75.9553 34.6784 75.796 34.3563 75.8855C34.3868 75.4794 34.4238 75.0756 34.463 74.674Z" fill="#2B2F36"/>
<path d="M40.4488 3.21916C41.2517 3.1362 42.0589 3.14494 42.8662 3.13184C42.8509 3.35886 42.8379 3.58807 42.827 3.81728C42.2047 3.58153 41.5389 3.57934 40.8883 3.63828C40.8774 6.10721 40.8905 8.57833 40.8774 11.0473L40.8861 11.2525C42.4071 11.3441 43.9715 11.51 45.4663 11.128C45.5816 10.7198 45.6969 10.3138 45.8035 9.90338C45.908 10.4448 45.9167 10.9992 45.8862 11.5515C44.0759 11.5908 42.2569 11.6519 40.4488 11.521C40.4444 8.75296 40.4466 5.98715 40.4488 3.21916Z" fill="#9E8644"/>
<path d="M42.8669 3.13199C42.9387 3.1691 43.078 3.24768 43.1498 3.28479C43.2999 5.35206 43.1128 7.43242 43.2325 9.50405C44.118 9.50405 45.0058 9.50187 45.8935 9.5237C45.8717 9.61756 45.826 9.80748 45.8043 9.90353C45.6977 10.3139 45.5824 10.72 45.467 11.1282C45.43 10.7505 45.3952 10.3707 45.3582 9.99303C44.5031 9.94719 43.6459 9.93191 42.7908 9.92973C42.7211 7.89302 42.7146 5.85195 42.8277 3.81743C42.8386 3.58822 42.8517 3.35901 42.8669 3.13199Z" fill="#A29165"/>
<path d="M32.1457 4.21749C33.821 4.05159 35.4442 3.56915 37.1087 3.35522C37.5918 3.78309 37.4852 4.61916 37.6853 5.21729C37.2763 5.36792 36.8498 5.46833 36.4233 5.54692C35.986 5.62551 35.553 5.7281 35.1265 5.84817C35.2005 6.18652 35.2767 6.52488 35.3528 6.86324C35.8185 6.76501 36.2819 6.67114 36.7475 6.57509C37.1022 6.49869 37.4569 6.42229 37.8115 6.35025C38.0987 6.99422 38.2162 7.69277 38.201 8.39568C37.8246 8.45463 37.4503 8.51356 37.0761 8.5856C36.6301 8.66419 36.1884 8.76241 35.7488 8.87156C35.8098 9.29069 35.8707 9.70982 35.9316 10.1268C36.5865 10.0875 37.2284 9.94559 37.8659 9.7906C38.1227 9.7382 38.3838 9.70109 38.6449 9.68145C38.8081 10.297 38.9408 10.9192 39.0191 11.5522C37.2697 12.0412 35.4703 12.3796 33.6709 12.6197C33.1117 10.3887 32.7571 8.11408 32.2849 5.86563C32.1609 5.32644 32.0913 4.77197 32.1457 4.21749ZM32.6178 4.665C32.6461 5.1125 32.6983 5.56001 32.7962 5.99879C33.2314 8.01585 33.5687 10.0526 34.0365 12.0631C35.4464 11.9212 36.8346 11.5959 38.2184 11.2925C38.6993 11.1811 38.3185 10.559 38.3381 10.2359C37.4329 10.2949 36.5604 10.5765 35.6553 10.6398C35.4964 9.93248 35.3485 9.22303 35.231 8.5092C36.0643 8.32146 36.8999 8.14683 37.731 7.94817C37.6657 7.612 37.5983 7.27364 37.5308 6.93528C36.6801 7.0226 35.8446 7.19287 35.0004 7.3173C34.8285 6.70171 34.7175 6.06865 34.7066 5.42904C35.516 5.27841 36.3211 5.10377 37.1218 4.90512C37.0522 4.5624 36.9782 4.21967 36.902 3.87914C35.4616 4.07779 34.0473 4.41396 32.6178 4.665ZM56.7152 7.3566C56.9589 6.98112 57.0938 6.39172 57.5572 6.25201C59.1042 6.95711 60.599 7.78009 62.1199 8.54631C61.9524 9.21866 61.6064 9.81897 61.2322 10.3931C60.8971 10.2381 60.5686 10.0766 60.2422 9.90629C59.8092 9.68145 59.3653 9.47625 58.9171 9.28415C58.7735 9.57666 58.6321 9.86918 58.4906 10.1617C58.6625 10.2556 58.8366 10.3473 59.0128 10.4368C59.5677 10.7184 60.1182 11.0065 60.6578 11.3143C60.5033 11.9888 60.1834 12.6066 59.7744 13.1589C59.5046 13.0236 59.2391 12.886 58.9737 12.7463C58.5015 12.4931 58.0272 12.2486 57.5463 12.015C57.3418 12.4058 57.1394 12.8009 56.9436 13.196C57.122 13.2921 57.3026 13.3881 57.4854 13.4842C58.0794 13.7876 58.6843 14.0757 59.2761 14.3879C59.0999 15.0275 58.8018 15.6235 58.445 16.1823C56.7826 15.4466 55.129 14.6564 53.5798 13.6959C54.5459 11.5457 55.7056 9.48716 56.7152 7.3566ZM57.5877 6.76501C56.4323 8.99599 55.2704 11.2248 54.189 13.4929C55.488 14.2962 56.8849 14.9227 58.2382 15.6257C58.3971 15.3026 58.545 14.9729 58.6778 14.6368C57.9206 14.2307 57.1634 13.8247 56.3975 13.4318C56.6216 12.7245 56.9697 12.0674 57.381 11.4518C58.1556 11.8077 58.9019 12.2268 59.6939 12.5455C59.8331 12.2159 59.9746 11.8862 60.116 11.5566C59.3914 11.1549 58.6538 10.7817 57.9249 10.3931C58.1425 9.79933 58.4188 9.22958 58.7278 8.67947C59.5394 8.98945 60.2944 9.41949 61.0842 9.77531C61.2409 9.44569 61.3758 9.10733 61.4802 8.75805C60.19 8.08134 58.8801 7.43955 57.5877 6.76501ZM65.351 13.4078C66.254 12.9319 67.1244 12.3796 68.1035 12.074C67.8794 13.3248 67.3637 14.4927 66.9938 15.6999C66.378 17.6536 65.7275 19.5943 65.0834 21.5393C64.3436 21.1071 63.6974 20.5264 63.1491 19.8715C62.8771 19.5899 63.2079 19.2319 63.2731 18.935C63.4037 18.5901 63.5233 18.2408 63.6408 17.8916C63.2884 17.5947 62.9337 17.3 62.5769 17.0096C62.3549 17.1122 62.133 17.2148 61.9111 17.3218C61.5607 17.4855 61.2235 17.6885 60.8449 17.7824C60.2291 17.5859 59.8484 17.0009 59.4371 16.5381C61.3606 15.4074 63.395 14.4796 65.351 13.4078ZM65.982 13.5977C64.0673 14.6259 62.1395 15.6235 60.2074 16.6123C60.4163 16.8765 60.6404 17.1275 60.8754 17.3698C61.4607 17.121 62.0351 16.8481 62.5964 16.549C63.1317 16.918 63.6147 17.3567 64.0521 17.8392C63.8563 18.4046 63.6691 18.9699 63.4777 19.5331C63.8932 19.9807 64.3436 20.4063 64.8963 20.6836C65.6796 18.1033 66.6413 15.5776 67.368 12.9821C66.8915 13.1524 66.4259 13.3532 65.982 13.5977ZM33.3271 73.4261C34.1518 73.6488 35.0004 73.7491 35.8293 73.9435C36.7062 74.2316 37.0804 75.3122 36.7367 76.133C36.6518 76.1679 36.4864 76.2377 36.4038 76.2727C36.5648 75.6855 36.7149 74.8974 36.1579 74.4695C35.3702 73.9456 34.3955 73.8671 33.486 73.723C33.1618 75.2423 32.6766 76.7289 32.4851 78.2744C33.4076 78.4906 34.3585 78.9709 35.3202 78.7351C36.1905 78.3705 36.0056 77.2791 36.3189 76.5499C36.4647 77.421 36.345 78.3574 35.6313 78.9534C35.0352 78.9227 34.439 78.9315 33.8428 78.9184C33.5447 78.8638 33.251 78.7787 32.9703 78.6696C32.731 78.5561 32.4699 78.4163 32.2001 78.5036C32.1914 77.7833 32.3981 77.0935 32.5982 76.4123C32.7571 75.8732 32.8767 75.3231 32.9812 74.7708C33.0682 74.3167 33.1922 73.8692 33.3271 73.4261Z" fill="#A48C4C"/>
<path d="M40.8884 3.63854C41.5389 3.5796 42.2047 3.58179 42.827 3.81755C42.7139 5.85206 42.7204 7.89313 42.79 9.92984C43.6451 9.93202 44.5024 9.9473 45.3575 9.99315C45.3945 10.3708 45.4293 10.7506 45.4663 11.1283C43.9389 11.0366 42.4071 11.0977 40.8775 11.0475C40.8905 8.57859 40.8775 6.10747 40.8884 3.63854ZM32.6158 4.66454C34.0454 4.41349 35.4597 4.07732 36.9001 3.87867C36.9762 4.21921 37.0502 4.56194 37.1198 4.90466C36.3191 5.10331 35.5141 5.27795 34.7046 5.42857C34.7155 6.06818 34.8265 6.70124 34.9984 7.31683C35.8426 7.1924 36.6781 7.02213 37.5289 6.93482C37.5963 7.27317 37.6638 7.61154 37.729 7.94771C36.8979 8.14636 36.0624 8.321 35.229 8.50873C35.3465 9.22256 35.4945 9.93202 35.6533 10.6393C36.5585 10.576 37.431 10.2944 38.3361 10.2355C38.3165 10.5585 38.6973 11.1807 38.2164 11.292C36.8326 11.5954 35.4444 11.9207 34.0345 12.0626C33.5667 10.0521 33.2294 8.01538 32.7943 5.99833C32.6963 5.55955 32.6441 5.11204 32.6158 4.66454ZM49.4002 5.05965C50.8406 4.16901 53.0404 5.03127 53.3559 6.75363C53.0643 6.87151 52.7706 6.98066 52.4703 7.07889C52.2332 6.52005 52.0134 5.7451 51.2736 5.73201C50.5099 5.54645 50.0356 6.48294 50.3968 7.09199C50.8189 7.82546 51.6457 8.19657 52.1483 8.86892C52.8489 9.66788 52.6618 11.0017 51.8676 11.6697C51.0038 12.4381 49.6657 12.4097 48.6822 11.9011C48.0186 11.5561 47.6465 10.8751 47.3723 10.2093C47.6726 10.17 47.9838 10.0084 48.2884 10.0957C48.6691 10.5673 48.9933 11.2964 49.7179 11.2265C50.4947 11.268 50.9755 10.2529 50.536 9.64387C49.9181 8.84927 48.878 8.36684 48.5691 7.34958C48.4102 6.51569 48.6169 5.51371 49.4002 5.05965ZM57.5857 6.76454C58.8781 7.43908 60.188 8.08087 61.4783 8.75759C61.3738 9.10686 61.2389 9.44522 61.0823 9.77485C60.2924 9.41903 59.5374 8.98898 58.7258 8.679C58.4169 9.22911 58.1405 9.79886 57.923 10.3926C58.6519 10.7812 59.3895 11.1545 60.114 11.5561C59.9726 11.8858 59.8312 12.2154 59.6919 12.545C58.8999 12.2263 58.1536 11.8072 57.379 11.4514C56.9678 12.067 56.6196 12.724 56.3955 13.4313C57.1614 13.8242 57.9186 14.2303 58.6758 14.6363C58.5431 14.9725 58.3951 15.3021 58.2363 15.6252C56.8829 14.9223 55.486 14.2958 54.1871 13.4924C55.2684 11.2243 56.4303 8.99553 57.5857 6.76454ZM16.0882 13.7588C16.902 12.2089 18.7557 11.543 20.4203 11.8705C20.392 12.235 20.3594 12.5996 20.3289 12.9642C19.5369 12.9751 18.6361 12.9227 18.0051 13.4946C17.2979 14.0775 17.063 15.1253 17.4785 15.9483C17.9921 17.0245 18.9364 18.0483 20.1679 18.2098C20.9556 18.3321 21.778 17.9326 22.1653 17.234C22.5526 16.6403 22.4438 15.9024 22.5396 15.2344C22.7463 14.9004 23.2445 15.086 23.5774 15.0009C23.6231 15.85 23.6819 16.7363 23.3664 17.544C22.8442 18.9346 21.3951 19.8558 19.9351 19.8863C16.9434 20.181 14.4455 16.3477 16.0882 13.7588ZM65.9801 13.5972C66.4239 13.3527 66.8896 13.1519 67.3661 12.9816C66.6393 15.5772 65.6776 18.1028 64.8943 20.6831C64.3417 20.4059 63.8913 19.9802 63.4757 19.5327C63.6672 18.9695 63.8543 18.4041 64.0501 17.8387C63.6128 17.3563 63.1297 16.9175 62.5945 16.5486C62.0331 16.8476 61.4587 17.1205 60.8734 17.3694C60.6384 17.1271 60.4143 16.876 60.2054 16.6119C62.1375 15.623 64.0653 14.6254 65.9801 13.5972ZM63.4061 16.1033C63.7063 16.3783 64.0196 16.6381 64.3417 16.8869C64.5505 16.4089 64.7094 15.9133 64.8138 15.4025C64.3221 15.5881 63.8521 15.826 63.4061 16.1033Z" fill="#FFFFFA"/>
<path d="M49.35 4.54876C51.2495 3.47257 54.189 5.12289 53.7408 7.42154C53.1729 7.44119 52.6072 7.47393 52.0393 7.50668C51.8979 7.10283 51.7521 6.70335 51.6063 6.30168C51.3343 6.28859 51.0602 6.27549 50.7882 6.26457C50.7207 7.12684 51.5062 7.55252 52.0589 8.04805C52.5571 8.49338 52.9248 9.10242 53.0554 9.76168C53.2077 10.9143 52.5006 12.128 51.3996 12.5209C50.0876 12.9946 48.41 12.6868 47.5353 11.5364C47.1698 11.0933 47.0088 10.5323 46.8564 9.98871C47.4113 9.72239 48.0031 9.53465 48.6145 9.44733C48.8321 9.90575 49.0606 10.3576 49.2956 10.8051C49.7198 10.8139 50.1006 10.6501 50.4205 10.3751C50.3051 10.1655 50.192 9.95596 50.068 9.75295C49.4239 9.12644 48.6015 8.62872 48.2207 7.77955C47.7921 6.62476 48.1554 5.08359 49.35 4.54876ZM49.4 5.05958C48.6167 5.51364 48.41 6.51561 48.5688 7.3495C48.8778 8.36676 49.9178 8.8492 50.5358 9.6438C50.9753 10.2528 50.4944 11.2679 49.7177 11.2264C48.9931 11.2963 48.6689 10.5672 48.2881 10.0957C47.9835 10.0084 47.6724 10.1699 47.3721 10.2092C47.6463 10.875 48.0183 11.5561 48.682 11.901C49.6654 12.4096 51.0036 12.438 51.8674 11.6696C52.6616 11.0016 52.8487 9.66781 52.1481 8.86885C51.6455 8.1965 50.8186 7.82539 50.3965 7.09191C50.0353 6.48287 50.5097 5.54638 51.2734 5.73193C52.0132 5.74503 52.2329 6.51998 52.4701 7.07882C52.7704 6.98059 53.0641 6.87143 53.3557 6.75356C53.0402 5.0312 50.8404 4.16893 49.4 5.05958Z" fill="#A28C51"/>
<path d="M26.2458 6.52438C27.0465 6.08342 27.8407 5.5879 28.7523 5.41544C29.9099 7.95859 31.2089 10.4363 32.2924 13.0121C31.4961 13.464 30.6888 13.9355 29.7859 14.1386C29.3072 13.2392 28.9308 12.2896 28.4825 11.3771C27.9778 11.1959 27.5274 11.5539 27.0878 11.746C27.214 12.0429 27.3381 12.3398 27.473 12.6323C27.8298 13.344 28.2127 14.0447 28.4869 14.7978C27.721 15.2759 26.9072 15.6906 26.0369 15.946C25.4342 15.0117 25.0447 13.9661 24.5639 12.9685C23.8393 11.4557 23.1104 9.94508 22.4229 8.41483C23.1561 7.82761 24.0482 7.51326 24.912 7.17927C25.3037 7.91493 25.6104 8.69206 25.9803 9.43864C26.0695 9.60891 26.1609 9.77918 26.2523 9.94945C26.6723 9.73989 27.09 9.52596 27.5034 9.30548C27.4055 9.09155 27.3098 8.87543 27.2097 8.6615C26.855 7.96514 26.4655 7.27969 26.2458 6.52438ZM26.855 6.7274C27.177 7.69227 27.6971 8.57419 28.0474 9.52814C27.399 9.90797 26.7201 10.2267 26.0195 10.493C25.5169 9.62201 25.1448 8.68333 24.6683 7.79924C24.1004 8.00443 23.5543 8.26202 23.0169 8.53489C24.0221 10.8576 25.1644 13.1235 26.2632 15.4069C26.8224 15.1733 27.3663 14.9048 27.882 14.5882C27.4577 13.5644 26.9355 12.5843 26.5134 11.5583C27.1879 11.2025 27.8755 10.8641 28.5935 10.6043C29.1266 11.5845 29.4943 12.6541 30.1166 13.5863C30.654 13.3461 31.1806 13.0864 31.6897 12.7873C30.6497 10.5039 29.5944 8.22055 28.4303 5.99829C27.8907 6.20786 27.3642 6.45016 26.855 6.7274Z" fill="#A48C49"/>
<path d="M26.8557 6.72753C27.3649 6.45029 27.8914 6.20798 28.4311 5.99842C29.5951 8.22067 30.6504 10.5041 31.6905 12.7874C31.1813 13.0865 30.6548 13.3463 30.1173 13.5864C29.495 12.6543 29.1273 11.5846 28.5942 10.6045C27.8762 10.8642 27.1887 11.2026 26.5141 11.5584C26.9363 12.5844 27.4585 13.5646 27.8827 14.5884C27.3671 14.9049 26.8231 15.1734 26.2639 15.407C25.1651 13.1236 24.0228 10.8577 23.0176 8.53502C23.555 8.26215 24.1011 8.00456 24.669 7.79936C25.1455 8.68346 25.5176 9.62213 26.0202 10.4931C26.7208 10.2268 27.3997 9.9081 28.0481 9.52827C27.6978 8.57431 27.1778 7.69239 26.8557 6.72753Z" fill="#FFFFFC"/>
<path d="M50.7902 6.26462C51.0622 6.27553 51.3363 6.28863 51.6083 6.30173C51.7541 6.70339 51.8999 7.10287 52.0413 7.50672C52.6092 7.47398 53.1749 7.44123 53.7428 7.42159C53.2119 7.70319 52.6397 7.89529 52.0609 8.0481C51.5082 7.55256 50.7228 7.12689 50.7902 6.26462Z" fill="#03317F"/>
<path d="M35.7471 8.87126C36.1866 8.76211 36.6283 8.66388 37.0743 8.5853C36.8328 8.84507 36.489 8.95422 36.167 9.07646C36.13 9.29039 36.0952 9.5065 36.0582 9.72262C36.6609 9.75973 37.2614 9.77283 37.8642 9.79029C37.2266 9.94528 36.5848 10.0872 35.9298 10.1265C35.8689 9.70952 35.808 9.29039 35.7471 8.87126Z" fill="#374041"/>
<path d="M50.0693 9.7529C50.1933 9.95592 50.3065 10.1655 50.4218 10.375C50.1019 10.6501 49.7212 10.8138 49.2969 10.8051C49.6494 10.5322 49.9257 10.1786 50.0693 9.7529Z" fill="#424740"/>
<path d="M40.8789 11.0472C42.4085 11.0974 43.9403 11.0363 45.4677 11.128C43.9729 11.51 42.4085 11.3441 40.8876 11.2524L40.8789 11.0472Z" fill="#E1C278"/>
<path d="M18.0004 11.5497C18.9447 11.2397 19.9542 11.3336 20.9225 11.4318C20.966 12.161 20.8224 12.8813 20.6875 13.5952C20.6223 13.5864 20.4895 13.5668 20.4243 13.5581C19.7106 13.4314 18.9229 13.3136 18.3115 13.8091C17.6762 14.3527 17.6326 15.3372 18.0439 16.0248C18.4529 16.8041 19.1601 17.3848 19.9717 17.7057C20.2763 17.889 20.6962 17.9349 20.9769 17.6817C22.104 17.1621 22.0888 15.8436 21.9517 14.7914C22.5587 14.5862 23.1919 14.4683 23.8273 14.3963C23.8708 14.4967 23.9535 14.7019 23.9948 14.8023C24.0666 15.5664 24.0731 16.3391 23.997 17.1032C23.5009 19.8472 20.0108 21.1613 17.6762 19.8843C16.5469 19.2185 15.6961 18.1095 15.2653 16.8762C14.5604 14.7434 15.9159 12.2636 18.0004 11.5497ZM16.09 13.7589C14.4473 16.3479 16.9451 20.1812 19.9369 19.8865C21.3969 19.8559 22.846 18.9347 23.3682 17.5441C23.6837 16.7364 23.6249 15.8502 23.5792 15.001C23.2463 15.0861 22.748 14.9006 22.5413 15.2346C22.4456 15.9026 22.5544 16.6404 22.1671 17.2342C21.7798 17.9327 20.9573 18.3322 20.1697 18.2099C18.9381 18.0484 17.9939 17.0246 17.4803 15.9484C17.0648 15.1254 17.2997 14.0776 18.0069 13.4947C18.6379 12.9228 19.5387 12.9752 20.3307 12.9643C20.3612 12.5997 20.3938 12.2352 20.4221 11.8706C18.7575 11.5432 16.9037 12.209 16.09 13.7589ZM45.8053 74.3907C46.3341 74.2859 46.8628 74.1833 47.3894 74.0653C47.4198 74.3143 47.4503 74.561 47.4829 74.8098C47.5961 75.8663 47.7266 76.925 47.9986 77.9532C48.5338 77.8725 49.0691 77.7808 49.5978 77.6585C49.6696 78.0886 49.7327 78.5186 49.7915 78.9508C49.5652 79.012 49.3389 79.0665 49.1104 79.1124C48.2227 79.2128 47.3306 79.2717 46.4494 79.429L46.4342 79.215C46.308 77.5953 45.8859 76.0147 45.8053 74.3907ZM45.999 74.5762C46.2188 76.1109 46.4581 77.641 46.717 79.1691C47.6679 79.0906 48.6056 78.9094 49.5391 78.7195C49.4782 78.4728 49.4151 78.2261 49.3541 77.9816C48.8385 78.0689 48.325 78.1563 47.8093 78.2348C47.4742 76.96 47.4242 75.6327 47.1174 74.3536C46.7431 74.4255 46.3711 74.4976 45.999 74.5762Z" fill="#A48C4D"/>
<path d="M27.0879 11.746C27.5274 11.5539 27.9778 11.1959 28.4826 11.3771C28.1867 11.5212 27.8842 11.6609 27.584 11.7962C27.5448 12.0757 27.5078 12.3529 27.473 12.6323C27.3381 12.3398 27.2141 12.0429 27.0879 11.746Z" fill="#323C41"/>
<path d="M56.9434 13.1955C57.1392 12.8004 57.3415 12.4053 57.5461 12.0145C58.0269 12.2481 58.5013 12.4926 58.9734 12.7458C58.4969 12.6541 58.0204 12.5537 57.5461 12.4533C57.52 12.796 57.4982 13.1387 57.4851 13.4836C57.3024 13.3876 57.1218 13.2915 56.9434 13.1955Z" fill="#2B3B48"/>
<path d="M41.3195 12.8547C47.1006 12.6495 52.9275 14.2583 57.7949 17.3931C63.5935 21.1019 68.0517 26.9086 70.0187 33.5317C72.3381 41.1284 71.4308 49.6769 67.4577 56.5663C64.2614 62.17 59.1809 66.6778 53.2213 69.1249C48.5171 71.0851 43.2973 71.6899 38.2559 71.048C31.7175 70.1901 25.4859 67.0293 20.9841 62.1831C16.676 57.6862 13.9105 51.7419 13.1859 45.5511C12.6963 41.124 13.1206 36.5747 14.6198 32.3704C16.9045 25.7844 21.6434 20.1065 27.6792 16.6596C31.8198 14.2911 36.55 12.9311 41.3195 12.8547ZM39.1523 13.9483C35.6949 14.2889 32.3159 15.3192 29.2284 16.9128C23.1491 20.0279 18.2927 25.446 15.8426 31.8377C13.6581 37.4828 13.3556 43.8287 14.9723 49.6616C16.6346 55.728 20.4032 61.1833 25.4707 64.8855C30.3685 68.5115 36.4761 70.463 42.5619 70.332C48.4105 70.2774 54.2221 68.3063 58.9111 64.7982C63.9177 61.0938 67.6514 55.6844 69.2941 49.6616C70.9369 43.7218 70.5975 37.2405 68.2976 31.5212C66.0108 25.756 61.7527 20.8138 56.4219 17.6768C51.2652 14.6141 45.1076 13.2935 39.1523 13.9483ZM62.9037 66.8829C63.6609 67.5794 64.2658 68.4198 64.9011 69.2253C65.1035 69.4938 65.2993 69.7841 65.3689 70.1225C65.3711 70.546 65.3668 70.9673 65.3581 71.393C65.0143 72.6591 63.2997 72.9516 62.338 72.253C62.9494 72.3229 63.5956 72.5695 64.1983 72.3142C65.1013 71.9933 65.6148 70.7599 65.0578 69.9347C64.4703 68.9633 63.7392 68.0901 63.0212 67.2169C62.8189 67.4068 62.6187 67.6012 62.4207 67.7954C63.0321 68.7429 63.835 69.5615 64.3963 70.5438C64.6792 71.1157 63.7871 71.7335 63.3585 71.2379C62.5773 70.4238 62.0247 69.4217 61.2697 68.5835C60.952 68.8258 60.6365 69.0681 60.3232 69.3148C60.9346 70.1989 61.6504 71.0175 62.177 71.9605C61.2936 71.1856 60.6561 70.1749 60.012 69.2013C60.4407 68.8432 60.8737 68.4721 61.4067 68.2822C62.1139 69.162 62.6883 70.1552 63.476 70.9673C63.6152 70.9825 63.8915 71.0153 64.0286 71.0328C64.0526 69.6335 62.5752 68.8848 62.1204 67.6492C62.3837 67.3959 62.647 67.1428 62.9037 66.8829ZM39.3634 73.9077C39.8421 74.7395 40.0314 75.6868 40.3164 76.5928C40.6232 77.6515 41.0257 78.6841 41.2455 79.7668C40.7276 79.745 40.2141 79.7123 39.7006 79.662C39.4548 79.1556 39.3133 78.4155 38.641 78.3457C38.369 78.6797 38.1014 79.0181 37.8294 79.3521C37.4878 79.3171 37.1419 79.3303 36.8003 79.3804C36.8829 78.6731 37.2702 78.0641 37.5836 77.442C38.1971 76.2741 38.728 75.0647 39.3634 73.9077ZM39.3438 74.5451C38.5322 76.0688 37.6793 77.5882 37.0788 79.2102C37.2485 79.2145 37.5857 79.2211 37.7533 79.2254C37.936 78.8739 38.1188 78.5226 38.2972 78.1711C38.6693 78.2213 39.0392 78.2802 39.4091 78.3479C39.5309 78.6972 39.6571 79.0465 39.7833 79.3957C40.1641 79.4372 40.547 79.4699 40.9322 79.494C40.497 77.8196 40.0227 76.1366 39.3438 74.5451Z" fill="#BA8A1D"/>
<path d="M18.3105 13.809C18.922 13.3135 19.7096 13.4314 20.4233 13.558C19.7357 13.7479 19.0221 13.8112 18.3105 13.809Z" fill="#2A3843"/>
<path d="M23.9932 14.8022C24.6611 15.3065 24.2869 16.4111 24.2369 17.1489L23.9953 17.1031C24.0715 16.339 24.065 15.5663 23.9932 14.8022Z" fill="#1D2F44"/>
<path d="M63.4062 16.103C63.8523 15.8258 64.3223 15.5879 64.814 15.4023C64.7096 15.9131 64.5507 16.4087 64.3419 16.8867C64.0198 16.6379 63.7065 16.3781 63.4062 16.103Z" fill="#B3944A"/>
<path d="M19.9727 17.7056C20.2163 17.4524 20.7255 17.4305 20.9779 17.6816C20.6972 17.9348 20.2773 17.889 19.9727 17.7056Z" fill="#514E34"/>
<path d="M43.8436 22.1369C43.5303 20.8599 44.6356 19.9736 45.6278 19.4541C45.2274 20.2836 45.0599 21.1961 45.049 22.1129C44.6465 22.1217 44.2439 22.1304 43.8436 22.1369ZM41.002 23.1477L41.1521 23.1455C41.8527 23.1695 42.8188 22.9927 43.1908 23.7676C43.8545 24.9595 43.0124 26.5203 41.7352 26.8281C42.1421 26.1165 42.6186 25.2826 42.2813 24.4443C42.1225 23.8986 41.4872 23.8462 41.0411 23.6737C41.0302 23.5428 41.0107 23.2786 41.002 23.1477Z" fill="#596DB1"/>
<path d="M26.6449 23.224C26.9517 22.1478 27.772 21.2048 28.8403 20.8424C28.0592 21.6501 27.252 22.5713 27.141 23.7414C26.9408 25.0075 27.4261 26.2583 28.1571 27.269C26.7428 26.5334 26.2576 24.691 26.6449 23.224ZM32.548 62.2357C33.1006 62.1942 33.6555 62.1942 34.2103 62.1877C34.1603 62.692 34.1124 63.1984 34.095 63.707C33.971 63.6284 33.7207 63.4691 33.5967 63.3883C33.4401 62.8186 33.2486 62.2335 32.548 62.2357Z" fill="#586EB1"/>
<path d="M33.5748 22.4576C34.3472 22.5253 34.6975 23.3024 34.976 23.9246C35.4395 25.1951 35.2349 26.7013 34.4168 27.7841C33.875 28.559 33.0482 29.0545 32.2279 29.4868C31.8428 29.203 31.4207 28.9716 31.0029 28.7402C31.2075 28.0962 31.9385 27.9172 32.3933 27.4937C33.8794 26.3346 34.3254 24.1647 33.5748 22.4576ZM60.8597 39.4323C61.7714 39.7489 62.4002 40.6592 62.4002 41.6262C62.4959 42.9949 61.5081 44.2501 60.2701 44.7348C60.2157 44.1781 60.1417 43.6236 59.948 43.0975C61.0033 42.2113 61.4233 40.7181 60.8597 39.4323ZM41.5557 58.0923C42.0496 57.4549 42.8416 57.1929 43.5575 56.8917C44.1471 57.182 44.7498 57.4396 45.3569 57.6906C44.4561 58.149 43.3617 58.4023 42.7524 59.2798C42.0475 60.2512 42.0562 61.5392 41.436 62.5477C40.9617 63.3205 39.9587 63.1153 39.2363 63.4231C38.9512 63.8575 38.8707 64.3967 38.6619 64.8704C38.181 64.5779 37.7371 64.2286 37.3564 63.816C37.5587 63.327 37.5914 62.7245 37.9808 62.3403C38.6532 62.05 39.5888 62.2683 40.0587 61.5959C40.7615 60.5197 40.7507 59.1139 41.5557 58.0923Z" fill="#D3D3D6"/>
<path d="M29.7536 22.9859C30.5152 22.4009 31.7097 22.558 32.1645 23.4487C32.7672 24.7213 31.8599 26.2254 30.6871 26.793C30.55 26.0748 30.03 25.5792 29.4795 25.1514C30.117 25.1077 31.1114 25.1885 31.1701 24.3088C31.3202 23.4487 30.4151 23.1321 29.7536 22.9859Z" fill="#596DB2"/>
<path d="M29.7536 22.9861C30.4151 23.1324 31.3202 23.4489 31.1701 24.309C31.1113 25.1887 30.117 25.108 29.4795 25.1516C29.3141 24.7368 28.9964 24.2981 29.1748 23.8331C29.3272 23.5253 29.5534 23.2634 29.7536 22.9861Z" fill="#D2D3D9"/>
<path d="M47.2256 24.3943C47.3322 23.7699 48.0698 24.0756 48.5115 24.0166C48.6725 24.558 49.0924 24.9269 49.5124 25.2718C48.6834 25.7237 47.7434 25.0273 47.2256 24.3943Z" fill="#CDD3E0"/>
<path d="M49.0342 23.9858C49.3737 23.964 49.7131 23.9444 50.0525 23.9269C49.935 24.2325 49.8154 24.5359 49.6957 24.8416C49.2235 24.7892 48.9624 24.4595 49.0342 23.9858Z" fill="#B4C8EB"/>
<path d="M53.402 24.4444C53.822 24.8264 54.4682 25.1036 54.6031 25.6952C54.3224 26.4134 53.7893 26.994 53.4173 27.662C53.0561 27.5616 52.7014 27.4437 52.338 27.363C52.1944 27.5529 52.09 27.7646 52.0269 27.9982C51.4329 27.4896 50.9977 28.3497 50.7018 28.7644C50.2297 28.795 49.7553 28.7841 49.2832 28.7426C49.1178 27.9633 49.5116 27.1163 50.2297 26.7714C50.7497 26.5225 51.1283 27.1141 51.5178 27.3673C52.1705 26.4112 52.9734 25.538 53.402 24.4444ZM46.3066 63.1526C46.6178 62.9605 46.9485 62.7837 47.3184 62.7422C47.4664 62.7684 47.7644 62.823 47.9124 62.8492C48.0756 63.1613 48.241 63.4757 48.4107 63.7857C47.6731 63.9778 47.3967 64.6938 47.0965 65.3115C46.5177 64.7396 46.472 63.9014 46.3066 63.1526Z" fill="#D3D3D7"/>
<path d="M38.8797 27.6206C38.7861 27.2342 38.9254 26.8565 39.0538 26.4963C39.391 27.7079 40.6117 28.199 41.643 28.6727C41.4907 30.096 40.6856 31.3119 40.0198 32.5388C39.6782 33.0234 39.9785 33.6019 39.9763 34.1345C39.9045 35.0863 39.3149 36.0511 38.3183 36.2236C38.1921 35.477 38.1965 34.6584 37.7439 34.0188C37.0868 33.0867 36.2012 32.3532 35.3635 31.5935C36.3884 31.6743 37.4045 31.8533 38.4315 31.9079C39.1016 31.0631 39.6673 30.1419 40.1656 29.1857C39.6695 28.736 38.9754 28.3518 38.8797 27.6206ZM55.9143 29.8952C57.2938 29.4783 58.7777 30.812 58.6363 32.2157C58.5253 33.0321 57.977 33.7001 57.4069 34.2568C56.2559 35.3548 54.8829 36.2498 53.98 37.5858C53.312 38.5397 53.2794 39.8408 53.7559 40.8842C54.5696 42.6633 56.2994 43.864 56.95 45.7369C57.272 46.7367 57.2785 47.9243 56.6845 48.8258C56.0427 49.7536 54.7981 50.0679 53.7363 49.8496C52.3481 49.5899 51.1906 48.5835 50.5965 47.3196C50.9469 47.6208 51.3146 47.9068 51.6975 48.1709C52.6723 48.7232 53.956 49.0114 54.983 48.4395C55.8077 47.981 56.0535 46.9005 55.7837 46.0447C55.3943 44.7022 54.302 43.7548 53.4948 42.6677C52.4351 41.3186 51.7367 39.4326 52.4025 37.7539C53.2815 35.7543 55.3094 34.6933 56.6671 33.0823C57.0066 32.7134 57.1197 32.2135 57.1371 31.7245C56.9086 31.0041 56.1863 30.513 55.4378 30.7793C55.1332 30.9736 54.8351 31.1788 54.5479 31.3949C54.8742 30.8033 55.1919 30.072 55.9143 29.8952ZM29.3648 34.3834C29.6737 34.4205 29.9871 34.451 30.2982 34.4838C30.3744 37.1535 30.2068 39.8277 30.3722 42.4931C30.6159 42.4581 30.8617 42.4188 31.1076 42.3796C31.5471 42.2726 31.9779 42.122 32.3848 41.9233C33.5358 41.275 34.5737 40.4476 35.6769 39.7251C36.6125 39.1291 37.6025 38.6205 38.5403 38.0267C39.4258 38.3192 40.3593 38.3891 41.284 38.4568C39.9676 39.4129 38.5054 40.1289 37.1107 40.9584C35.9423 41.6024 34.8196 42.3293 33.6468 42.9624C32.1912 43.7483 30.481 43.2898 28.9318 43.6609C28.1615 43.9207 27.3608 44.4752 27.2325 45.3396L27.1672 45.5841C26.806 45.403 27.0432 44.9576 27.0823 44.6607C27.3282 43.5234 28.4923 43.0519 29.3844 42.5127C29.3865 39.8037 29.4083 37.0946 29.3648 34.3834ZM44.576 43.1458C45.2897 43.4645 46.1013 43.8814 46.2732 44.7306C46.5343 45.6169 45.9207 46.4486 45.2114 46.907C43.066 48.339 40.3919 48.8498 38.4358 50.5897C37.8614 51.0546 37.5241 51.7838 37.6242 52.5281C37.6177 53.4712 38.5947 53.8728 39.2409 54.3422C38.8405 56.0951 38.4336 58.1733 36.7735 59.1774C35.2069 60.0899 33.303 59.1119 31.6603 59.7385C31.2273 59.9044 30.9379 60.3628 30.9836 60.8299C31.0249 61.7075 31.162 62.5785 31.2251 63.4539C30.9531 63.1592 30.7856 62.7902 30.8117 62.382C30.803 61.4172 30.5985 60.3104 31.2447 59.4918C31.7016 59.1774 32.2216 58.9657 32.7591 58.8347C34.0102 58.8172 35.5942 59.3914 36.5646 58.3086C37.3109 57.2979 37.5655 55.9859 37.6242 54.7526C37.3675 54.0409 36.4036 53.744 36.2339 52.9451C35.9358 51.4126 36.965 50.057 37.9745 49.0332C39.3149 47.7715 40.8292 46.6407 42.5394 45.9443C43.2618 45.6824 44.2192 45.7282 44.6979 45.0384C44.811 44.4075 44.6391 43.7723 44.576 43.1458ZM45.3441 52.0392C45.9033 52.0435 46.4842 52.0239 47.0195 52.2138C47.5678 52.7071 47.6679 53.5694 48.2836 54.0082C48.9777 54.3007 49.7763 54.1501 50.4725 54.4251C51.0796 54.9076 51.3059 55.724 51.3385 56.4706C51.3733 57.7934 50.7837 59.0268 50.1222 60.1379C48.7449 60.2798 47.211 59.9851 45.986 60.7797C44.9307 61.5001 45.5725 62.9038 45.5682 63.9385C45.0351 62.9954 44.9916 61.7075 45.4986 60.7492C46.3885 59.6664 47.942 59.8367 49.1866 59.6162C49.5826 59.5966 49.6435 59.1469 49.7306 58.8434C49.8415 58.206 49.8328 57.5424 49.724 56.905C49.6631 56.6256 49.5935 56.3505 49.5239 56.0755C49.1757 55.9641 48.8254 55.855 48.4795 55.7349C47.3023 55.2721 46.3754 54.3029 45.8141 53.183C45.64 52.8076 45.4899 52.4234 45.3441 52.0392Z" fill="#5A6DB2"/>
<path d="M53.4167 27.6617C54.2914 27.9455 55.0073 27.1902 55.6883 26.7689C55.5251 27.7163 54.9507 28.6288 53.9694 28.8711C53.6974 28.834 53.4254 28.7947 53.1534 28.7488C52.7618 28.5218 52.3984 28.2555 52.0264 27.9979C52.0895 27.7643 52.1939 27.5526 52.3375 27.3627C52.7009 27.4434 53.0555 27.5613 53.4167 27.6617Z" fill="#EA0E16"/>
<path d="M29.3413 28.4959C29.672 28.5177 30.0049 28.5352 30.3378 28.5549C30.3378 28.7098 30.3356 29.022 30.3356 29.177C30.0027 29.1661 29.6698 29.153 29.3369 29.1464C29.3369 28.9827 29.3391 28.6575 29.3413 28.4959Z" fill="#536EB5"/>
<path d="M31.0029 28.7403C31.4207 28.9717 31.8428 29.2031 32.2279 29.4869C32.5108 29.8056 32.7545 30.1571 32.9982 30.5063C32.415 30.3077 31.7884 30.1745 31.2836 29.8078C31.0747 29.4956 31.0769 29.0962 31.0029 28.7403Z" fill="#5A6EAE"/>
<path d="M53.1543 28.7489C53.4263 28.7947 53.6983 28.834 53.9702 28.8711C54.301 28.9803 54.6186 29.1266 54.9428 29.2619C54.6926 29.5391 54.4707 29.836 54.2661 30.146C53.9224 29.9779 53.5677 29.8295 53.2631 29.5981C53.163 29.3274 53.1761 29.0327 53.1543 28.7489Z" fill="#D7D3D5"/>
<path d="M7.60131 29.2512C9.20277 28.7623 11.0935 29.3604 12.0683 30.74C13.1867 32.2353 13.1018 34.5144 11.8224 35.8874C10.7411 37.1252 8.87417 37.588 7.34454 36.9876C5.92159 36.455 4.86198 35.0732 4.7271 33.5539C4.5204 31.6787 5.79104 29.7686 7.60131 29.2512ZM6.96821 30.1201C7.20966 30.2336 7.43812 30.4933 7.72975 30.4213C8.56956 30.2532 9.41813 30.1353 10.2646 30.0087C9.24839 29.4084 7.96254 29.5438 6.96821 30.1201ZM5.87152 31.1635C7.26195 31.8424 8.58266 32.6457 9.936 33.3945C10.0208 33.0234 10.1014 32.6523 10.1797 32.279C9.12661 31.4255 7.92991 30.7509 6.62874 30.358C6.36986 30.62 6.11742 30.8885 5.87152 31.1635ZM8.12573 30.5283C8.46077 30.8055 8.79802 31.2094 9.28325 31.1308C10.0426 31.0937 10.8041 31.0587 11.5657 31.0216C11.3851 30.8011 11.1893 30.6025 10.9739 30.4191C10.0317 30.2183 9.05912 30.3362 8.12573 30.5283ZM9.43778 31.3665C9.73363 31.6285 10.0274 31.9014 10.3798 32.0869C10.9609 32.1349 11.5439 32.0913 12.1249 32.0716C12.027 31.8424 11.9291 31.6154 11.829 31.3905C11.0391 31.2486 10.2297 31.2486 9.43778 31.3665ZM5.32979 32.6217C6.60698 33.4862 8.00384 34.1935 9.48341 34.6366C9.52259 34.2808 9.9491 33.7852 9.54868 33.5146C8.34986 32.6894 7.05957 31.9887 5.72144 31.4146C5.5386 31.7988 5.40805 32.2026 5.32979 32.6217ZM11.5831 32.2856C11.4743 33.7547 10.8759 35.0907 10.1667 36.3546C11.7485 35.8132 12.5057 34.0188 12.2728 32.4384C12.0422 32.386 11.8138 32.3358 11.5831 32.2856ZM9.04613 35.9551C9.17013 36.0512 9.41602 36.2389 9.54002 36.3349C10.7519 35.3985 11.1676 33.8158 11.3308 32.362C11.1284 32.351 10.7236 32.3314 10.5213 32.3205C10.1405 33.5757 9.66624 34.8003 9.04613 35.9551ZM5.24486 32.9645C5.3037 33.4884 5.21444 34.1716 5.70834 34.5165C6.60698 35.2173 7.69056 35.656 8.81545 35.8154C8.97863 35.5032 9.1396 35.1889 9.29846 34.8745C7.89505 34.3506 6.57867 33.639 5.24486 32.9645ZM5.90638 35.0754C5.80625 35.3766 5.90638 35.4923 6.211 35.4203C6.31546 35.1169 6.21311 35.0012 5.90638 35.0754ZM6.50906 35.3919C6.53737 36.0512 7.10742 36.3459 7.66659 36.4921C7.67968 35.8045 7.11608 35.4814 6.50906 35.3919ZM7.71443 35.9049C7.86896 36.1538 7.99951 36.4288 8.22142 36.6318C8.60652 36.7825 9.0287 36.682 9.4269 36.6558C9.06345 36.0555 8.3694 35.8874 7.71443 35.9049Z" fill="#FDF7FB"/>
<path d="M74.3998 29.2471C76.7802 28.459 79.5587 30.3582 79.6023 32.8926C79.8285 34.9992 78.1314 37.0272 76.0404 37.2171C73.7841 37.5707 71.4777 35.6519 71.4951 33.3423C71.3319 31.5021 72.6505 29.7382 74.3998 29.2471ZM73.7079 30.1181C73.956 30.2425 74.1997 30.4979 74.5043 30.4193C75.3463 30.2534 76.1949 30.1312 77.0457 30.0068C76.0121 29.4152 74.7197 29.5549 73.7079 30.1181ZM72.6396 31.1681C74.0278 31.8514 75.3463 32.6634 76.7106 33.3882C76.7846 33.0302 77.0043 32.6721 76.9369 32.2989C75.9338 31.3929 74.6936 30.797 73.4251 30.3604C73.1574 30.6223 72.8963 30.8909 72.6396 31.1681ZM74.8981 30.5241C75.194 30.7621 75.4616 31.1375 75.8794 31.1288C76.6932 31.1135 77.5069 31.0524 78.3229 31.0589C78.1532 30.8406 77.9878 30.6202 77.7854 30.4368C76.8346 30.2032 75.8424 30.3342 74.8981 30.5241ZM76.2188 31.3667C76.5126 31.6331 76.7976 31.9299 77.1632 32.1002C77.7419 32.133 78.3207 32.0937 78.8995 32.0675C78.8059 31.8492 78.7123 31.6287 78.621 31.4104C77.8311 31.2423 77.0152 31.2423 76.2188 31.3667ZM72.3959 31.5392C72.2305 31.8863 72.1587 32.2639 72.0826 32.6372C73.3489 33.4711 74.7197 34.1369 76.147 34.6412C76.295 34.3443 76.4386 34.0452 76.58 33.7462C75.5683 32.945 74.4172 32.336 73.2728 31.7531C72.9877 31.6724 72.6962 31.3864 72.3959 31.5392ZM77.174 32.67C76.8194 33.8029 76.3624 34.8988 75.8207 35.9553C75.9469 36.0557 76.1949 36.2566 76.3211 36.357C77.5135 35.3703 78.0139 33.7855 78.0313 32.2792C77.7354 32.3643 77.2545 32.2639 77.174 32.67ZM78.3403 32.2552C78.2141 33.7876 77.6723 35.2437 76.7323 36.4596C78.3381 35.9531 79.3499 34.1675 79.0257 32.5215C78.869 32.3032 78.5644 32.3403 78.3403 32.2552ZM72.0543 32.9974C72.0782 33.4755 71.9803 34.0714 72.3741 34.4316C73.2249 35.1695 74.3106 35.5864 75.4029 35.8047C75.7967 35.6934 75.8642 35.1847 76.0709 34.8791C74.6783 34.3661 73.3772 33.6567 72.0543 32.9974ZM72.6744 35.0974C72.5874 35.4008 72.694 35.51 72.9964 35.427C73.0856 35.1192 72.9768 35.0079 72.6744 35.0974ZM73.2989 35.403C73.3293 36.0623 73.8646 36.3788 74.4477 36.4967C74.4325 35.8265 73.9081 35.4816 73.2989 35.403ZM74.4934 35.8811C74.637 36.1321 74.7523 36.4116 74.9612 36.6211C75.3093 36.7565 75.6945 36.715 76.0622 36.7412C75.973 35.9924 75.0831 35.9182 74.4934 35.8811Z" fill="#FDF8FD"/>
<path d="M6.96875 30.1199C7.96308 29.5436 9.24894 29.4083 10.2651 30.0086C9.41867 30.1352 8.5701 30.2531 7.73029 30.4212C7.43866 30.4932 7.2102 30.2334 6.96875 30.1199Z" fill="#C6363B"/>
<path d="M73.707 30.1176C74.7188 29.5544 76.0112 29.4147 77.0448 30.0063C76.194 30.1307 75.3454 30.253 74.5034 30.4189C74.1988 30.4974 73.9551 30.242 73.707 30.1176Z" fill="#C63136"/>
<path d="M28.4337 29.8386C29.3498 29.5592 30.0591 30.3145 30.6226 30.9192C29.8785 31.0371 29.1213 31.0436 28.375 30.9476C28.3859 30.5765 28.4076 30.2076 28.4337 29.8386Z" fill="#576DB5"/>
<path d="M50.6856 29.8428C51.0925 29.8537 51.5015 29.8624 51.9084 29.8733C51.978 30.6461 52.0433 31.4167 52.1042 32.1894C51.3405 31.8009 50.4049 30.9583 49.5563 31.6197C48.5881 32.2811 48.8862 33.5887 49.0472 34.5667C48.4445 34.296 47.8744 33.8507 47.7243 33.1718C47.4632 32.268 47.4284 30.9495 48.3944 30.4562C49.2648 30.0567 50.0981 30.7465 50.814 31.1656C50.7617 30.7247 50.7074 30.2859 50.6856 29.8428ZM51.1099 34.8308C51.1447 34.9225 51.2143 35.1059 51.2491 35.1976C51.5059 35.0971 51.7648 34.9967 52.0237 34.8985C52.4415 35.7673 52.6417 36.9417 51.9323 37.7145C51.2818 38.5004 50.1873 38.496 49.267 38.6357C49.1364 39.9477 50.0176 41.0392 50.1764 42.3053C50.4702 44.3092 50.8814 46.3088 51.6995 48.1709C51.3166 47.9068 50.9489 47.6208 50.5986 47.3195C49.4998 45.3898 49.1886 43.161 48.8383 41.0021C48.686 39.7883 47.7265 38.806 47.9245 37.5268C48.8296 37.4744 49.874 37.4831 50.5442 36.7584C51.0816 36.2738 51.099 35.501 51.1099 34.8308Z" fill="#D2D3D8"/>
<path d="M60.6376 30.0391C61.7211 30.419 62.2738 31.5781 62.2325 32.6762C62.2956 33.9641 61.5427 35.1145 60.6398 35.9615C59.9109 36.6164 59.1254 37.2014 58.3921 37.8476C57.0736 37.7603 55.9269 38.4545 54.9021 39.1945C55.1741 38.6182 55.4917 38.0484 55.9726 37.6184C57.4435 36.2584 59.3538 35.3219 60.4287 33.5668C61.0858 32.5124 61.0836 31.1721 60.6376 30.0391ZM55.8812 42.2855C56.0727 41.7376 56.3403 41.1177 56.98 40.9954C57.7894 40.6876 58.5792 41.2574 58.8882 41.993C58.4356 42.1109 57.883 42.1044 57.5631 42.4995C57.1736 42.9186 57.1845 43.6128 57.6023 44.0079C58.527 45.0819 59.541 46.1647 59.9239 47.5727C60.2981 48.7668 60.148 50.2184 59.1928 51.1047C58.0331 52.3403 56.151 52.3948 54.6105 52.0063C53.6314 51.729 52.5739 51.3645 51.9495 50.5044C53.5922 51.1549 55.5657 51.502 57.1911 50.6266C58.5618 49.9019 59.1123 48.1424 58.6663 46.6995C58.2594 44.9422 56.8864 43.7001 55.8812 42.2855ZM36.042 47.1907C38.1612 46.7104 39.7692 45.1474 41.0899 43.508C41.4076 44.0952 41.7122 44.689 42.0777 45.25C40.6134 46.3917 39.2796 47.8696 37.367 48.2276C36.871 47.8783 36.4119 47.4068 35.807 47.2671C34.8496 47.2605 33.8378 47.6796 33.2482 48.4502C32.974 49.0964 32.6477 49.7229 32.3648 50.3669C32.2821 51.6024 32.3256 52.8467 32.3343 54.0845C32.3061 54.8092 33.1916 55.2633 32.961 56.0186C32.7978 56.9485 32.7151 57.8894 32.7608 58.8346C32.2234 58.9656 31.7034 59.1773 31.2464 59.4916C30.7721 59.3083 30.3282 59.0245 30.165 58.5159C30.659 58.2757 31.3117 58.112 31.5119 57.5292C31.6207 56.9572 31.4205 56.3722 31.538 55.8024C31.6424 55.2676 31.6946 54.7241 31.699 54.1805C31.4705 53.9338 31.0397 53.7788 31.0463 53.3903C30.9788 51.8709 31.0767 50.3494 31.0158 48.8301C31.1463 48.7951 31.4053 48.7296 31.5358 48.6947C31.501 47.0837 33.2177 46.0599 34.6755 46.2738C35.2086 46.4397 35.6068 46.861 36.042 47.1907ZM41.8079 54.2067C42.4259 52.8664 43.9576 52.2137 45.3458 52.039C45.4916 52.4232 45.6417 52.8074 45.8158 53.1829C44.9542 53.5736 44.0164 53.9316 43.405 54.6935C43.059 55.117 43.0438 55.6933 42.9415 56.2107C42.18 55.9007 41.4293 55.0755 41.8079 54.2067ZM32.0754 62.5347C32.1951 62.4583 32.4323 62.3099 32.5498 62.2356C33.2504 62.2334 33.4418 62.8185 33.5985 63.3882C33.2874 63.8008 32.9958 64.2244 32.7021 64.6478C31.9449 64.2265 32.1168 63.2594 32.0754 62.5347ZM34.4993 63.6305C34.6603 63.0171 35.0781 62.5325 35.6199 62.2182C36.0572 62.5107 36.377 62.932 36.6925 63.3468C36.2139 63.8488 35.8722 64.4579 35.572 65.0778C35.0911 64.698 34.7234 64.2025 34.4993 63.6305ZM49.1057 63.8554C49.3646 63.3402 49.6736 62.729 50.3502 62.7748C50.6396 63.0761 50.9377 63.3708 51.2271 63.6742L51.3315 63.7921C50.8616 64.2308 50.4873 64.7526 50.137 65.2896C49.6975 64.8857 49.3798 64.3793 49.1057 63.8554Z" fill="#D2D3D7"/>
<path d="M5.87109 31.1632C6.11698 30.8882 6.36942 30.6197 6.62831 30.3577C7.92948 30.7506 9.12618 31.4252 10.1792 32.2787C10.101 32.652 10.0204 33.0231 9.93557 33.3942C8.58223 32.6455 7.26152 31.8421 5.87109 31.1632ZM72.0534 32.9969C73.3763 33.6562 74.6775 34.3656 76.07 34.8786C75.8633 35.1842 75.7959 35.6929 75.402 35.8042C74.3098 35.5859 73.224 35.169 72.3733 34.4311C71.9795 34.0709 72.0774 33.475 72.0534 32.9969Z" fill="#EF0C14"/>
<path d="M8.12598 30.5279C9.05937 30.3358 10.0319 30.2179 10.9741 30.4188C11.1896 30.6021 11.3854 30.8008 11.5659 31.0213C10.8044 31.0584 10.0428 31.0933 9.2835 31.1304C8.79827 31.209 8.46101 30.8052 8.12598 30.5279Z" fill="#E31219"/>
<path d="M72.6387 31.1679C72.8954 30.8906 73.1565 30.6221 73.4241 30.3602C74.6927 30.7968 75.9329 31.3927 76.9359 32.2986C77.0034 32.6719 76.7836 33.0299 76.7097 33.3879C75.3454 32.6632 74.0269 31.8511 72.6387 31.1679Z" fill="#EF0D14"/>
<path d="M74.8965 30.5241C75.8408 30.3342 76.833 30.2032 77.7838 30.4368C77.9862 30.6201 78.1515 30.8406 78.3212 31.0589C77.5053 31.0524 76.6915 31.1135 75.8778 31.1288C75.46 31.1375 75.1924 30.762 74.8965 30.5241Z" fill="#DC151B"/>
<path d="M55.4388 30.7793C56.1872 30.513 56.9096 31.0041 57.1381 31.7245C56.4527 32.0214 55.8913 32.5213 55.417 33.0889C55.4692 32.3205 55.4888 31.5499 55.4388 30.7793Z" fill="#D3D3D8"/>
<path d="M9.4375 31.3665C10.2295 31.2486 11.0388 31.2486 11.8287 31.3905C11.9288 31.6154 12.0267 31.8424 12.1247 32.0716C11.5436 32.0913 10.9606 32.1349 10.3795 32.0869C10.0271 31.9013 9.73335 31.6285 9.4375 31.3665Z" fill="#E1131A"/>
<path d="M28.6677 31.4666C29.3705 31.4579 30.0342 31.7439 30.6456 32.0669C29.9819 32.497 29.1159 32.7327 28.3457 32.473C28.4175 32.1324 28.2239 31.5976 28.6677 31.4666Z" fill="#566DB5"/>
<path d="M76.2197 31.3666C77.0161 31.2422 77.832 31.2422 78.6218 31.4103C78.7132 31.6286 78.8068 31.8491 78.9004 32.0674C78.3216 32.0936 77.7428 32.1328 77.164 32.1001C76.7985 31.9298 76.5135 31.6329 76.2197 31.3666Z" fill="#E21219"/>
<path d="M5.33008 32.6215C5.40834 32.2024 5.53889 31.7986 5.72173 31.4144C7.05987 31.9885 8.35016 32.6892 9.54898 33.5144C9.94939 33.7851 9.52289 34.2806 9.4837 34.6364C8.00413 34.1933 6.60727 33.486 5.33008 32.6215ZM8.28488 50.0176C8.87669 49.5919 9.82095 50.0569 9.82972 50.7903C9.90144 51.5413 8.98981 52.1503 8.33928 51.7421C7.67776 51.419 7.60382 50.3603 8.28488 50.0176ZM9.90588 51.7748C10.6978 51.8251 11.7314 52.1481 12.0033 52.982C11.7966 53.5343 11.1417 53.6587 10.7174 53.9993C10.2758 54.2285 9.89933 54.724 9.3597 54.6607C8.66565 54.0735 8.97671 53.0431 9.08117 52.2682C9.47715 52.4537 9.81229 52.7332 10.1495 53.006C10.0668 52.5956 9.97759 52.1874 9.90588 51.7748Z" fill="#F10B13"/>
<path d="M72.3962 31.5387C72.6965 31.3859 72.988 31.6718 73.2731 31.7526C74.4176 32.3355 75.5686 32.9445 76.5803 33.7457C76.4389 34.0447 76.2953 34.3438 76.1473 34.6407C74.72 34.1364 73.3492 33.4706 72.0829 32.6367C72.159 32.2634 72.2308 31.8858 72.3962 31.5387ZM5.43277 52.7614C5.41535 51.742 6.85573 51.6459 7.62815 51.5892C7.48672 52.0061 7.32142 52.4143 7.17122 52.8291C7.52812 52.6043 7.87193 52.3576 8.21784 52.1153C8.4876 52.7833 8.44408 53.5844 8.14169 54.2327C7.96107 54.6344 7.37148 54.5515 7.1277 54.2589C6.60117 53.7154 5.92234 53.3377 5.43277 52.7614Z" fill="#F10C13"/>
<path d="M11.5834 32.2852C11.8141 32.3354 12.0425 32.3856 12.2731 32.438C12.506 34.0185 11.7488 35.8129 10.167 36.3542C10.8762 35.0903 11.4746 33.7543 11.5834 32.2852Z" fill="#E11219"/>
<path d="M77.1747 32.6699C77.2552 32.2639 77.736 32.3643 78.0319 32.2792C78.0145 33.7854 77.5141 35.3702 76.3217 36.3569C76.1955 36.2565 75.9475 36.0557 75.8213 35.9553C76.3631 34.8987 76.82 33.8029 77.1747 32.6699Z" fill="#EB0F16"/>
<path d="M78.3394 32.2548C78.5635 32.34 78.8681 32.3029 79.0248 32.5212C79.349 34.1671 78.3372 35.9528 76.7314 36.4592C77.6714 35.2433 78.2132 33.7873 78.3394 32.2548Z" fill="#E41118"/>
<path d="M9.04492 35.9549C9.66503 34.8001 10.1393 33.5755 10.52 32.3203C10.7224 32.3312 11.1272 32.3508 11.3295 32.3617C11.1664 33.8156 10.7507 35.3982 9.53881 36.3347C9.41481 36.2387 9.16892 36.0509 9.04492 35.9549Z" fill="#E90F16"/>
<path d="M28.6377 33.1C29.2513 32.8053 29.904 33.0716 30.3979 33.4689C29.8388 33.6916 29.2448 33.7985 28.6464 33.7964C28.6442 33.6217 28.6399 33.2724 28.6377 33.1Z" fill="#556DB6"/>
<path d="M5.24512 32.9645C6.57892 33.639 7.8953 34.3507 9.29872 34.8746C9.13986 35.1889 8.97889 35.5033 8.8157 35.8154C7.69082 35.6561 6.60723 35.2173 5.70859 34.5166C5.2147 34.1717 5.30395 33.4884 5.24512 32.9645ZM77.1347 51.5982C77.8114 51.6223 78.5163 51.7336 79.0777 52.1396C79.4759 52.3252 79.3432 52.9167 79.0168 53.1067C78.5359 53.4909 78.0529 53.8729 77.596 54.2876C77.3501 54.5911 76.7278 54.602 76.5907 54.1872C76.3427 53.6109 76.3362 52.9648 76.3492 52.3492C76.8192 52.1287 77.163 52.657 77.5633 52.8185C77.4219 52.4103 77.2652 52.0086 77.1347 51.5982Z" fill="#F00C14"/>
<path d="M31.0933 34.652C32.1116 34.8855 33.1364 35.1147 34.1112 35.5011C34.1982 35.702 34.2831 35.9072 34.3658 36.1102C33.7022 35.9748 33.0363 35.8548 32.3684 35.75C32.3009 37.8063 32.3183 39.8671 32.3858 41.9234C31.9789 42.122 31.5481 42.2727 31.1086 42.3796C31.0759 39.8037 31.0912 37.2278 31.0933 34.652Z" fill="#D1D3D8"/>
<path d="M5.90565 35.0753C6.21237 35.001 6.31473 35.1167 6.21026 35.4202C5.90565 35.4922 5.80552 35.3765 5.90565 35.0753Z" fill="#BC7D80"/>
<path d="M72.6738 35.0971C72.9763 35.0076 73.0851 35.119 72.9959 35.4268C72.6934 35.5097 72.5868 35.4006 72.6738 35.0971Z" fill="#C86D70"/>
<path d="M6.50977 35.392C7.11678 35.4815 7.68039 35.8046 7.66729 36.4922C7.10812 36.3459 6.53807 36.0512 6.50977 35.392Z" fill="#C33539"/>
<path d="M34.1129 35.5009C34.683 35.7607 35.3488 36.2628 35.129 36.9853C34.9941 37.8148 33.9323 37.5791 33.334 37.7625C33.7017 37.4961 34.1652 37.3193 34.4284 36.9307C34.4828 36.6579 34.4132 36.3806 34.3675 36.11C34.2848 35.9069 34.2 35.7017 34.1129 35.5009Z" fill="#566DAF"/>
<path d="M73.2979 35.4024C73.9071 35.481 74.4315 35.8259 74.4467 36.4961C73.8636 36.3782 73.3283 36.0617 73.2979 35.4024Z" fill="#CE3439"/>
<path d="M7.71484 35.9049C8.36981 35.8874 9.06386 36.0555 9.42731 36.6558C9.02911 36.682 8.60694 36.7824 8.22183 36.6318C7.99992 36.4288 7.86937 36.1537 7.71484 35.9049Z" fill="#CC2B30"/>
<path d="M74.4932 35.8809C75.0828 35.918 75.9727 35.9922 76.0619 36.741C75.6942 36.7148 75.3091 36.7562 74.961 36.6209C74.7521 36.4113 74.6368 36.1319 74.4932 35.8809Z" fill="#CA1D23"/>
<path d="M36.4836 38.3581C37.095 38.0677 37.5411 37.5438 37.9849 37.0483C38.1742 37.3714 38.3614 37.6966 38.542 38.0263C37.6042 38.62 36.6142 39.1287 35.6786 39.7246C35.2782 39.3666 34.8757 39.0108 34.4492 38.6855C35.1346 38.6637 35.857 38.679 36.4836 38.3581Z" fill="#CDD3DF"/>
<path d="M56.2944 40.5655C57.1016 39.5395 58.8684 39.6028 59.5951 40.6965C60.2305 41.4169 59.9193 42.421 59.7844 43.2658C59.5386 43.4907 59.2056 43.5736 58.9119 43.7111C58.9097 43.137 58.9445 42.5629 58.888 41.9932C58.579 41.2575 57.7892 40.6877 56.9798 40.9955C56.3401 41.1178 56.0725 41.7378 55.881 42.2857C55.8745 41.6963 55.8745 41.0327 56.2944 40.5655ZM28.7135 46.3809C29.0007 46.2958 29.2923 46.2259 29.5839 46.1582C29.4968 46.6603 29.4163 47.1646 29.3532 47.671C29.8515 47.4375 30.3628 47.2279 30.8894 47.0685C30.935 47.5925 30.9786 48.1164 31.0069 48.6425C30.7871 48.4089 30.5673 48.1753 30.3454 47.9439C30.2497 49.9129 30.3432 51.8863 30.3236 53.8554C30.2823 54.1763 30.3519 54.6194 29.9907 54.7809C29.5469 54.9512 29.0638 54.9665 28.5982 55.032C28.5851 54.7111 28.5699 54.3902 28.5547 54.0693C28.8136 53.9711 29.0747 53.875 29.3358 53.7811C29.4598 52.2072 29.3554 50.6246 29.3989 49.0463C29.4859 48.0924 28.8919 47.2868 28.7135 46.3809Z" fill="#5A6DB1"/>
<path d="M27.5146 45.2392C27.9215 45.1256 28.3415 45.0973 28.7614 45.058C28.459 45.5731 28.2153 46.1233 28.0999 46.7127L28.0325 46.9746C27.8301 46.4027 27.8193 45.7696 27.5146 45.2392Z" fill="#6C81B9"/>
<path d="M6.80718 47.658C7.00733 47.2432 7.18795 46.6189 7.74712 46.6145C8.59136 46.6451 9.43127 46.7477 10.2776 46.7608C10.8848 46.7848 11.0892 47.4157 11.2764 47.8872C11.742 48.0051 12.397 48.0662 12.5493 48.6229C12.7277 49.4328 12.9582 50.2295 13.1715 51.0329C13.302 51.5961 12.795 51.9672 12.3882 52.2313C12.4296 52.7574 12.584 53.4559 12.0444 53.7856C11.359 54.1829 10.6998 54.6195 10.0362 55.0495C9.54218 55.3639 9.01998 55.0015 8.60446 54.7352C8.1432 54.8792 7.63621 55.1761 7.15964 54.9163C6.68318 54.5911 6.30463 54.1436 5.83027 53.8161C5.51478 53.5542 5.09704 53.3533 4.95994 52.9386C4.88157 52.5413 5.02088 52.1505 5.08827 51.7642C4.7206 51.4192 4.24624 50.9565 4.49868 50.4042C4.82284 49.6772 5.10348 48.935 5.37335 48.1885C5.60181 47.6078 6.29153 47.6362 6.80718 47.658ZM7.4012 47.4091C7.27931 48.1645 7.86468 48.8041 8.26932 49.3804C8.79806 49.5463 8.69804 48.6491 8.94171 48.35C9.10057 48.7189 9.18971 49.1119 9.28985 49.5026C9.90774 49.2799 10.2842 48.6905 10.567 48.1273C10.7651 47.8501 10.678 47.3939 10.3277 47.2956C9.72068 47.1232 9.07437 47.2192 8.45215 47.1537C8.09314 47.1603 7.60791 47.0097 7.4012 47.4091ZM5.27543 49.8541C5.14055 50.2448 4.79675 50.6727 5.0513 51.0896C5.74757 51.559 6.60047 51.0809 7.33815 50.9521C7.23801 50.5177 6.88122 50.247 6.59181 49.9414C6.95737 49.9021 7.41863 50.1597 7.71237 49.8541C7.49045 49.0769 6.95516 48.3784 6.2197 48.0313C5.63878 48.4744 5.5735 49.2363 5.27543 49.8541ZM10.0471 50.1793C10.4517 50.1968 10.8586 50.2033 11.2633 50.2186C10.987 50.5286 10.2146 50.6377 10.4234 51.1595C10.9391 51.4454 11.5026 51.6659 12.0923 51.7205C12.4448 51.7227 12.7777 51.4127 12.6602 51.0481C12.4643 50.3081 12.2816 49.5637 12.0815 48.8237C12.0117 48.505 11.5222 48.3609 11.272 48.5683C10.7171 48.9569 10.1994 49.4939 10.0471 50.1793ZM8.28463 50.0178C7.60358 50.3605 7.67751 51.4192 8.33903 51.7423C8.98956 52.1505 9.90119 51.5415 9.82947 50.7906C9.82071 50.0571 8.87644 49.5921 8.28463 50.0178ZM5.43207 52.7618C5.92164 53.3381 6.60047 53.7157 7.127 54.2593C7.37078 54.5518 7.96037 54.6347 8.14098 54.2331C8.44338 53.5847 8.4869 52.7836 8.21714 52.1156C7.87123 52.3579 7.52742 52.6046 7.17052 52.8294C7.32072 52.4147 7.48602 52.0065 7.62745 51.5895C6.85502 51.6463 5.41464 51.7423 5.43207 52.7618ZM9.90563 51.7751C9.97734 52.1876 10.0666 52.5959 10.1493 53.0063C9.81205 52.7334 9.4769 52.454 9.08092 52.2684C8.97646 53.0434 8.6654 54.0737 9.35945 54.6609C9.89908 54.7242 10.2755 54.2287 10.7171 53.9995C11.1414 53.659 11.7964 53.5345 12.0031 52.9822C11.7311 52.1484 10.6976 51.8253 9.90563 51.7751Z" fill="#FFF3F9"/>
<path d="M74.1178 46.8746C74.5138 46.6628 74.9772 46.7567 75.408 46.7305C75.9846 46.7349 76.559 46.5711 77.1378 46.6366C77.6208 46.7218 77.771 47.2544 77.9363 47.6452C78.4455 47.6408 79.1004 47.5993 79.355 48.1538C79.6531 48.8982 79.9163 49.6557 80.2449 50.387C80.506 50.9458 80.0578 51.4457 79.6422 51.7579C79.7575 52.2818 80.0056 52.9694 79.4964 53.3689C78.885 53.847 78.2888 54.3469 77.7013 54.8533C77.2074 55.2462 76.6004 54.9341 76.1456 54.6503C75.9019 54.8337 75.6778 55.0563 75.3884 55.1633C74.7944 55.2659 74.344 54.7987 73.8893 54.5062C73.465 54.1984 72.9689 54.0041 72.5642 53.668C72.1813 53.3143 72.3379 52.7577 72.3684 52.3058C71.9854 51.9914 71.4915 51.6225 71.5873 51.0571C71.7874 50.2516 72.0224 49.4548 72.2008 48.645C72.3445 48.0337 73.0581 48.0075 73.5564 47.8875C73.6891 47.5295 73.7261 47.0536 74.1178 46.8746ZM75.2035 47.2064C74.8336 47.2304 74.3136 47.1627 74.1308 47.5797C74.0916 48.4398 74.7944 49.099 75.4276 49.5727C75.556 49.1667 75.6582 48.7519 75.7714 48.3415C75.9215 48.693 76.0455 49.0554 76.2 49.4046C76.6287 49.4745 76.757 48.9287 76.9833 48.6646C77.2488 48.2367 77.6426 47.5076 77.0704 47.154C76.4481 47.106 75.8258 47.2151 75.2035 47.2064ZM78.1235 48.2477C77.586 48.6864 77.1966 49.3042 77.0247 49.9809C77.449 49.9787 77.8732 49.9569 78.2975 49.9504C78.019 50.2713 77.388 50.4263 77.4446 50.9327C78.2105 51.151 79.3441 51.6858 79.8772 50.8039C79.5399 50.0639 79.2658 49.2998 78.9742 48.5424C78.8915 48.1647 78.4216 48.0053 78.1235 48.2477ZM72.6034 49.0925C72.5055 49.9504 71.9463 50.7646 72.1747 51.6378C73.0233 51.8452 73.8349 51.4391 74.5377 51.0026C74.1983 50.7144 73.8284 50.4699 73.4563 50.2276C73.8958 50.2123 74.3375 50.2014 74.777 50.1665C74.5138 49.5072 74.0568 48.9004 73.4345 48.5511C73.0364 48.2979 72.6121 48.6799 72.6034 49.0925ZM75.4929 49.9635C74.8532 50.232 74.7226 51.1837 75.2797 51.6138C75.828 52.1661 76.8854 51.771 76.9246 50.9895C77.0812 50.2145 76.1652 49.5967 75.4929 49.9635ZM74.2592 51.8364C73.6304 52.0744 72.7753 52.3516 72.7687 53.1681C73.4672 53.6505 74.1874 54.1002 74.8945 54.5717C75.197 54.8053 75.5951 54.6044 75.7192 54.2704C75.878 53.609 75.7779 52.9214 75.6669 52.2599C75.2731 52.4739 74.925 52.7555 74.566 53.0196C74.6704 52.6245 74.7944 52.2359 74.9141 51.8474C74.6987 51.8037 74.4702 51.7317 74.2592 51.8364ZM77.1356 51.5985C77.2662 52.0089 77.4228 52.4106 77.5643 52.8188C77.1639 52.6572 76.8201 52.129 76.3502 52.3494C76.3371 52.965 76.3436 53.6112 76.5917 54.1875C76.7288 54.6023 77.351 54.5913 77.5969 54.2879C78.0538 53.8732 78.5369 53.4911 79.0177 53.1069C79.3441 52.917 79.4768 52.3254 79.0787 52.1399C78.5173 51.7338 77.8123 51.6225 77.1356 51.5985Z" fill="#FFF2F4"/>
<path d="M7.40126 47.4092C7.60796 47.0098 8.0932 47.1604 8.45221 47.1538C9.07443 47.2193 9.72074 47.1233 10.3278 47.2957C10.6781 47.394 10.7651 47.8502 10.5671 48.1274C10.2842 48.6906 9.9078 49.28 9.28991 49.5027C9.18977 49.112 9.10063 48.719 8.94177 48.3501C8.6981 48.6492 8.79812 49.5464 8.26937 49.3805C7.86473 48.8042 7.27937 48.1646 7.40126 47.4092ZM5.27549 49.8542C5.57356 49.2364 5.63884 48.4745 6.21976 48.0314C6.95521 48.3785 7.49051 49.077 7.71243 49.8542C7.41869 50.1598 6.95743 49.9022 6.59187 49.9415C6.88128 50.2471 7.23807 50.5178 7.3382 50.9522C6.60053 51.081 5.74763 51.5591 5.05136 51.0897C4.79681 50.6728 5.14061 50.2449 5.27549 49.8542ZM78.1224 48.2475C78.4204 48.0052 78.8904 48.1646 78.9731 48.5422C79.2647 49.2997 79.5388 50.0637 79.8761 50.8038C79.343 51.6857 78.2094 51.1508 77.4435 50.9325C77.3869 50.4261 78.0179 50.2711 78.2964 49.9502C77.8721 49.9568 77.4478 49.9786 77.0236 49.9808C77.1955 49.3041 77.5849 48.6863 78.1224 48.2475ZM10.0471 50.1794C10.1994 49.494 10.7172 48.957 11.272 48.5684C11.5222 48.361 12.0118 48.5051 12.0815 48.8238C12.2817 49.5638 12.4644 50.3082 12.6602 51.0482C12.7778 51.4128 12.4449 51.7228 12.0924 51.7206C11.5027 51.666 10.9392 51.4455 10.4234 51.1596C10.2146 50.6378 10.9871 50.5287 11.2634 50.2187C10.8586 50.2034 10.4518 50.1969 10.0471 50.1794ZM72.6023 49.0923C72.611 48.6797 73.0353 48.2977 73.4334 48.5509C74.0557 48.9002 74.5127 49.5071 74.7759 50.1663C74.3364 50.2013 73.8947 50.2122 73.4552 50.2275C73.8273 50.4698 74.1972 50.7143 74.5366 51.0024C73.8338 51.439 73.0222 51.845 72.1736 51.6376C71.9452 50.7645 72.5044 49.9502 72.6023 49.0923ZM75.4918 49.9633C76.1641 49.5966 77.0801 50.2144 76.9235 50.9893C76.8843 51.7708 75.8269 52.1659 75.2785 51.6136C74.7215 51.1836 74.8521 50.2318 75.4918 49.9633ZM74.2581 51.8363C74.4691 51.7315 74.6976 51.8035 74.913 51.8472C74.7933 52.2358 74.6693 52.6243 74.5649 53.0195C74.9239 52.7553 75.272 52.4737 75.6658 52.2598C75.7768 52.9212 75.8769 53.6089 75.7181 54.2703C75.594 54.6043 75.1959 54.8051 74.8934 54.5715C74.1863 54.1 73.4661 53.6503 72.7676 53.1679C72.7742 52.3515 73.6293 52.0742 74.2581 51.8363Z" fill="#F20B13"/>
<path d="M75.2032 47.2062C75.8254 47.2149 76.4477 47.1058 77.07 47.1538C77.6423 47.5074 77.2484 48.2365 76.983 48.6644C76.7567 48.9285 76.6283 49.4743 76.1997 49.4044C76.0452 49.0551 75.9212 48.6928 75.771 48.3413C75.6579 48.7517 75.5556 49.1665 75.4273 49.5725C74.7941 49.0988 74.0913 48.4396 74.1305 47.5795C74.3132 47.1625 74.8333 47.2302 75.2032 47.2062Z" fill="#F30B12"/>
<path d="M30.3448 47.9438C30.5668 48.1752 30.7865 48.4088 31.0063 48.6423L31.015 48.8301C31.0759 50.3494 30.978 51.8709 31.0454 53.3903C31.0389 53.7788 31.4697 53.9338 31.6982 54.1805C31.6938 54.7241 31.6416 55.2676 31.5372 55.8025C31.4197 56.3722 31.6199 56.9572 31.5111 57.5292C31.3109 58.112 30.6581 58.2757 30.1642 58.5159C29.518 58.3129 28.9893 57.9046 28.6825 57.2912C29.159 57.4113 29.6333 57.6056 30.1294 57.5881C30.7778 57.4135 30.9693 56.4006 30.4275 56.0033C29.8574 55.7086 29.1938 55.7042 28.5693 55.6365C28.578 55.4837 28.5911 55.1825 28.5976 55.0319C29.0632 54.9664 29.5463 54.9511 29.9902 54.7808C30.3513 54.6193 30.2817 54.1761 30.3231 53.8552C30.3426 51.8862 30.2491 49.9128 30.3448 47.9438Z" fill="#043083"/>
<path d="M50.0645 49.3716C50.5431 49.6379 51.0022 49.9326 51.4613 50.2273C51.3612 51.1332 51.8204 51.9453 52.1315 52.7617C50.9805 52.0042 50.2842 50.7163 50.0645 49.3716Z" fill="#CFD3DE"/>
<path d="M54.8843 54.4579C55.6197 54.4383 56.3551 54.3924 57.0884 54.3269C55.3238 56.1672 54.6254 58.778 54.7755 61.2862C54.7755 62.0088 54.9844 62.7532 54.7907 63.4648C54.5035 63.9822 53.7985 63.9428 53.3046 64.1502C53.1327 64.4406 52.9587 64.7287 52.7846 65.0168C52.3386 64.6632 51.9012 64.3009 51.4639 63.9385C51.7076 63.5761 51.8642 63.0391 52.3755 62.9933C52.9391 62.8863 53.6549 62.6658 53.5701 61.9433C53.4112 59.4067 53.3264 56.6234 54.8843 54.4579Z" fill="#D2D3D6"/>
<path d="M28.5693 55.6367C29.1938 55.7044 29.8574 55.7087 30.4275 56.0034C30.9693 56.4007 30.7778 57.4136 30.1294 57.5883C29.6333 57.6057 29.159 57.4114 28.6825 57.2914C28.6564 56.774 28.887 56.309 29.1677 55.8921C28.9675 55.807 28.7673 55.7218 28.5693 55.6367Z" fill="#586DB3"/>
<path d="M48.4814 55.735C48.8274 55.855 49.1777 55.9642 49.5258 56.0755C49.5955 56.3506 49.6651 56.6256 49.726 56.905C49.2517 56.5841 48.7621 56.2523 48.4814 55.735Z" fill="#C8CDE1"/>
<path d="M35.6201 62.2182C36.0662 62.203 36.5122 62.2139 36.9604 62.2226C37.0888 62.7531 37.2215 63.2857 37.3564 63.8162C37.1214 63.6786 36.8995 63.5215 36.6928 63.3468C36.3773 62.9321 36.0575 62.5107 35.6201 62.2182Z" fill="#586EAF"/>
<path d="M47.3193 62.7421C47.7327 62.6767 48.1527 62.6439 48.5704 62.6134C48.5944 63.1482 48.6205 63.683 48.6509 64.22C48.59 64.1108 48.4704 63.8948 48.4116 63.7856C48.2419 63.4756 48.0765 63.1613 47.9133 62.8491C47.7654 62.8229 47.4673 62.7683 47.3193 62.7421Z" fill="#4C68A4"/>
<path d="M50.3496 62.7749C50.4997 62.7902 50.7978 62.8208 50.948 62.8361C51.0372 63.1155 51.1264 63.3971 51.2265 63.6743C50.9371 63.3709 50.639 63.0762 50.3496 62.7749Z" fill="#5A72AE"/>
<path d="M65.7939 64.1479C65.8745 63.6938 66.945 63.6916 66.9972 64.1719C66.5947 64.1675 66.1943 64.1784 65.7939 64.1479Z" fill="#2A3A46"/>
<path d="M65.7709 64.4778C66.1625 64.1264 66.7805 64.2158 67.1787 64.5149C67.5311 64.8227 67.7074 65.2746 68.0207 65.6195C68.4385 65.9513 69.1478 66.1041 69.2022 66.7328C69.4089 68.0906 67.975 68.8328 67.1765 69.6864C66.0581 68.5906 64.8984 67.5253 63.8757 66.3355C64.498 65.7068 65.0746 65.0258 65.7709 64.4778ZM65.1399 65.8771C65.4598 66.2787 65.8275 66.6389 66.2452 66.938C66.5085 66.5625 66.9458 66.0343 66.5346 65.5999C66.106 65.0869 65.5272 65.5933 65.1399 65.8771ZM67.1373 66.8397C67.0459 66.9402 66.8632 67.1432 66.7718 67.2458L66.6129 67.1301C66.8001 67.6169 67.1613 67.9946 67.5681 68.3068C67.8597 67.9619 68.3493 67.5055 67.975 67.0341C67.7879 66.7241 67.4289 66.8267 67.1373 66.8397ZM15.5744 66.746C16.3969 66.0124 17.1562 65.2091 17.9787 64.4778C18.7142 65.0651 19.393 65.7243 19.9696 66.4709C19.7999 66.6368 19.6302 66.8049 19.4626 66.973C19.0732 66.6259 18.6881 66.2744 18.3051 65.9186C18.0701 66.1566 17.8329 66.3945 17.5979 66.6324C17.9243 66.9839 18.2507 67.3354 18.5793 67.6846C18.4531 67.8985 18.3268 68.1103 18.2006 68.3242C17.7785 67.9771 17.3651 67.6235 16.9495 67.2699C16.4447 67.7675 15.9313 68.2566 15.4613 68.787C15.1501 68.4661 14.839 68.1452 14.5322 67.8221C14.8695 67.4532 15.2088 67.0864 15.5744 66.746ZM33.4837 73.7226C34.3932 73.8668 35.368 73.9453 36.1556 74.4692C36.7126 74.8971 36.5625 75.6852 36.4015 76.2724C36.3797 76.3401 36.3384 76.4797 36.3166 76.5496C36.0033 77.2788 36.1883 78.3702 35.3179 78.7348C34.3562 78.9705 33.4054 78.4903 32.4828 78.2741C32.6743 76.7286 33.1595 75.242 33.4837 73.7226ZM34.4607 74.6745C34.4215 75.0761 34.3845 75.4799 34.354 75.886C34.6761 75.7965 35.3484 75.9558 35.3049 75.4342C35.4202 74.9408 34.8588 74.7029 34.4607 74.6745ZM34.069 76.5016C33.908 76.9557 33.8166 77.4293 33.784 77.9118C34.1756 77.8791 34.7044 78.01 34.9219 77.5735C34.9589 77.2788 34.8719 76.9905 34.8327 76.7046C34.5782 76.6369 34.3236 76.5693 34.069 76.5016Z" fill="#FFFFF8"/>
<path d="M65.1406 65.8766C65.5279 65.5929 66.1067 65.0864 66.5353 65.5994C66.9466 66.0338 66.5092 66.5621 66.2459 66.9375C65.8282 66.6385 65.4605 66.2783 65.1406 65.8766ZM65.5388 65.8744C65.7499 66.1277 65.9783 66.3635 66.2264 66.5795C66.3003 66.4551 66.4505 66.2019 66.5245 66.0775C66.4548 65.9487 66.3156 65.6911 66.2481 65.5622C66.0088 65.6627 65.7738 65.7675 65.5388 65.8744Z" fill="#A69A77"/>
<path d="M65.5381 65.8747C65.7731 65.7678 66.0081 65.663 66.2474 65.5625C66.3149 65.6914 66.4541 65.949 66.5237 66.0778C66.4498 66.2022 66.2996 66.4554 66.2257 66.5798C65.9776 66.3638 65.7491 66.128 65.5381 65.8747Z" fill="#323B38"/>
<path d="M62.9043 66.8835C63.0979 66.6936 63.2938 66.508 63.4918 66.3247C63.8508 66.7002 64.2054 67.08 64.5623 67.4576C64.4491 68.0732 64.7298 68.6517 64.9017 69.2258C64.2664 68.4204 63.6615 67.5799 62.9043 66.8835Z" fill="#143362"/>
<path d="M67.1386 66.8396C67.4302 66.8266 67.7892 66.724 67.9763 67.034C68.3506 67.5054 67.861 67.9617 67.5695 68.3066C67.1626 67.9945 66.8014 67.6168 66.6143 67.13L66.7731 67.2457C67.0603 67.4531 67.341 67.667 67.6238 67.8831C67.7022 67.6648 67.7805 67.4444 67.861 67.2282C67.6217 67.0951 67.3802 66.9641 67.1386 66.8396Z" fill="#9B916E"/>
<path d="M66.7725 67.2459C66.8638 67.1433 67.0466 66.9403 67.138 66.8398C67.3795 66.9643 67.621 67.0953 67.8604 67.2284C67.7799 67.4446 67.7015 67.665 67.6232 67.8833C67.3404 67.6672 67.0597 67.4533 66.7725 67.2459Z" fill="#3B4342"/>
<path d="M62.4217 67.7958C62.6197 67.6015 62.8199 67.4072 63.0223 67.2173C63.7403 68.0905 64.4714 68.9637 65.0588 69.9351C65.6158 70.7603 65.1023 71.9936 64.1994 72.3145C63.5967 72.5699 62.9504 72.3233 62.339 72.2534C62.2977 72.1792 62.2172 72.0351 62.178 71.9609C61.6515 71.0179 60.9356 70.1993 60.3242 69.3152C60.6375 69.0685 60.953 68.8261 61.2707 68.5839C62.0257 69.4221 62.5784 70.4241 63.3595 71.2383C63.7881 71.7339 64.6802 71.1161 64.3974 70.5442C63.836 69.5619 63.0331 68.7432 62.4217 67.7958Z" fill="#FFFFF4"/>
<path d="M19.8171 68.0163C20.4242 67.5972 21.2336 67.6627 21.9146 67.8111C22.6914 68.0054 23.1592 68.6908 23.4812 69.3763C23.7097 70.5551 23.157 71.7186 22.2323 72.4368C20.9094 73.2205 19.0729 72.4958 18.5116 71.0812C18.3789 69.8958 18.8118 68.6931 19.8171 68.0163ZM21.1095 68.7869C20.1 69.1842 19.1361 70.8804 20.2566 71.6444C21.4751 71.8277 22.5869 70.4001 22.2388 69.2345C22.0103 68.835 21.5447 68.6603 21.1095 68.7869Z" fill="#FFFFF6"/>
<path d="M21.3036 68.9982C21.8366 68.852 22.3458 69.4741 22.1195 69.9718C21.8889 70.5918 21.4167 71.1659 20.7879 71.3972C20.2527 71.5828 19.7305 70.9804 19.9415 70.4804C20.2004 69.8671 20.5986 69.1422 21.3036 68.9982Z" fill="#023185"/>
<path d="M23.4804 69.3765C23.513 69.2803 23.5826 69.0904 23.6175 68.9966C23.9112 69.5532 23.9264 70.1885 23.9395 70.8041C24.2441 70.7015 24.5465 70.5378 24.8751 70.5378L25.0361 70.5508C24.4116 71.0246 23.7241 71.5135 23.4543 72.2885C23.0713 73.1421 23.3868 74.0851 23.822 74.8491C22.9952 74.3732 22.8885 73.3931 22.8516 72.533C22.6971 72.509 22.3881 72.4609 22.2314 72.4369C23.1562 71.7187 23.7088 70.5553 23.4804 69.3765Z" fill="#28334A"/>
<path d="M65.3703 70.1226C65.8294 70.223 65.825 71.3057 65.3594 71.3931C65.3681 70.9674 65.3724 70.5461 65.3703 70.1226Z" fill="#2F3C42"/>
<path d="M57.1544 70.9128C57.4982 70.7491 57.8419 70.5854 58.1857 70.4282C58.7275 71.3035 59.2258 72.203 59.7306 73.098C59.8785 73.2813 59.9373 73.5956 60.1918 73.6633C60.6749 73.4712 61.1122 73.1874 61.567 72.943C61.691 73.1831 61.8128 73.4276 61.9325 73.672C61.1383 74.1545 60.342 74.637 59.5108 75.0561C58.6535 73.7223 57.7984 72.3645 57.1544 70.9128ZM29.2885 72.3165C30.3046 72.6112 31.3011 72.9735 32.2824 73.3664C32.2367 73.6022 32.1889 73.838 32.1432 74.0759C31.7842 74.0039 31.4252 73.934 31.0661 73.8598C30.6157 75.0561 30.2219 76.2763 29.7324 77.4595C29.3668 77.3132 29.0013 77.167 28.6357 77.0208C28.923 76.1388 29.2276 75.2613 29.5365 74.3859C29.6214 74.1763 29.7063 73.969 29.7868 73.7616C29.8107 73.6961 29.8542 73.5651 29.8781 73.4996C29.5757 73.2726 29.2602 73.063 28.9491 72.8513C29.0339 72.716 29.2036 72.4496 29.2885 72.3165Z" fill="#FFFFF7"/>
<path d="M25.0381 70.5506C25.9933 70.6402 27.1291 70.7034 27.7122 71.5963C28.4498 72.5655 28.0473 73.8448 27.5446 74.8206C26.6112 75.8946 24.7922 75.8552 23.824 74.849C23.3888 74.0849 23.0733 73.1419 23.4562 72.2883C23.726 71.5134 24.4136 71.0244 25.0381 70.5506ZM25.4798 71.8386C24.7596 72.404 24.1677 73.7116 24.9684 74.4276C26.1064 74.8228 27.0007 73.4212 26.8288 72.4084C26.9485 71.7055 25.9149 71.3431 25.4798 71.8386ZM54.8252 71.9958C55.5019 71.7688 56.1612 72.1683 56.7878 72.38C56.6703 72.5917 56.555 72.8035 56.4397 73.0174C55.8 73.0328 54.9797 72.6899 54.4989 73.262C53.9179 73.9015 54.3313 74.8533 54.7534 75.4623C55.095 75.9907 55.7804 75.792 56.3026 75.792C56.3548 75.7156 56.4593 75.5605 56.5115 75.4841C56.6877 75.2244 56.8596 74.9647 57.0315 74.7027C57.2578 74.7201 57.4863 74.7419 57.7126 74.7638C57.5624 75.4995 57.2404 76.2526 56.5507 76.6281C55.726 77.1432 54.7251 76.8616 53.8787 76.5647C53.7177 76.4337 53.5676 76.2941 53.4262 76.1456C53.1803 75.5824 52.9018 75.0018 52.9018 74.373C52.7799 73.227 53.7591 72.2228 54.8252 71.9958Z" fill="#FFFFF3"/>
<path d="M25.4778 71.8389C25.913 71.3434 26.9465 71.7058 26.8268 72.4087C26.9987 73.4215 26.1044 74.8231 24.9665 74.4279C24.1658 73.7119 24.7576 72.4043 25.4778 71.8389Z" fill="#06317B"/>
<path d="M28.1148 71.8713C28.4282 71.963 28.7458 72.0416 29.07 72.1005C28.9634 72.4367 28.8568 72.7729 28.748 73.1091C29.0961 73.3229 29.4421 73.5391 29.7859 73.7618C29.7054 73.9691 29.6205 74.1765 29.5357 74.3861C29.4138 74.5608 29.2941 74.7375 29.1745 74.9165C29.1788 74.504 29.2028 74.0914 29.2397 73.681C28.7719 73.382 28.3825 73.6919 28.0996 74.0805C28.3194 73.3623 28.3411 72.5917 28.1148 71.8713Z" fill="#374654"/>
<path d="M29.4355 72.0916C30.2906 72.0807 31.322 72.216 31.8638 72.9604C31.0348 72.7269 30.2406 72.3929 29.4355 72.0916Z" fill="#253C58"/>
<path d="M31.2857 74.233C31.6056 74.2198 31.9232 74.281 32.2409 74.3312L32.3715 74.353C31.7035 74.5189 31.1291 74.8879 30.6982 75.4248C30.8614 75.0166 30.9398 74.5298 31.2857 74.233Z" fill="#2A3E55"/>
<path d="M45.9998 74.5757C46.3719 74.497 46.7439 74.425 47.1182 74.353C47.425 75.6322 47.475 76.9594 47.8101 78.2342C48.3258 78.1557 48.8393 78.0684 49.3549 77.9811C49.4159 78.2256 49.479 78.4722 49.5399 78.7189C48.6064 78.9088 47.6687 79.09 46.7178 79.1686C46.4589 77.6405 46.2196 76.1103 45.9998 74.5757ZM39.3461 74.545C40.025 76.1365 40.4993 77.8195 40.9345 79.4939C40.5493 79.4698 40.1664 79.4371 39.7856 79.3957C39.6594 79.0464 39.5332 78.6971 39.4114 78.3478C39.0415 78.2801 38.6716 78.2212 38.2995 78.171C38.1211 78.5225 37.9383 78.8739 37.7556 79.2254C37.588 79.221 37.2508 79.2145 37.0811 79.2101C37.6816 77.5881 38.5345 76.0688 39.3461 74.545ZM38.8848 77.0445C38.5171 77.1363 38.6324 77.7824 39.0197 77.6973C39.3766 77.6143 39.233 76.9878 38.8848 77.0445Z" fill="#FFFFF5"/>
<path d="M42.1538 74.5671C42.6368 74.5541 43.1177 74.5518 43.6007 74.5584C43.7574 75.8354 43.7574 77.1234 43.7704 78.407C44.334 78.4113 44.8997 78.4157 45.4654 78.4266C45.4871 78.7781 45.5111 79.1317 45.5372 79.4875L45.2826 79.4766C45.2326 79.2954 45.1347 78.9309 45.0846 78.7497C44.5646 78.7104 44.0446 78.6755 43.5245 78.6428C43.481 77.3635 43.4636 76.0865 43.4092 74.8094C43.0567 74.8138 42.7064 74.8181 42.3583 74.8247C42.3561 75.8332 42.3975 76.8418 42.3996 77.8503L42.2016 77.9529C42.1712 77.5054 42.1559 77.0557 42.1494 76.6082C42.1494 75.9271 42.1494 75.246 42.1538 74.5671Z" fill="#C2B388"/>
<path d="M32.5981 76.4119C32.4458 75.8181 32.6134 75.244 32.9811 74.7703C32.8766 75.3226 32.757 75.8727 32.5981 76.4119Z" fill="#3E4B53"/>
<path d="M42.3575 74.825C42.7056 74.8185 43.0559 74.8141 43.4084 74.8098C43.4628 76.0868 43.4802 77.3638 43.5238 78.6431C44.0438 78.6758 44.5638 78.7107 45.0838 78.75C45.1339 78.9312 45.2318 79.2958 45.2818 79.477C44.8031 79.4726 44.3288 79.4879 43.8523 79.5054C43.3845 79.429 42.9123 79.3285 42.4358 79.3699C42.4119 78.8635 42.4054 78.3571 42.3988 77.8507C42.3967 76.8422 42.3553 75.8335 42.3575 74.825Z" fill="#FFFFF9"/>
<path d="M47.4824 74.8092C47.8762 74.8594 47.7914 75.3527 47.8654 75.6344C47.9263 76.2761 47.985 76.9223 48.1112 77.5575C48.6073 77.551 49.1078 77.5488 49.5973 77.6579C49.0686 77.7802 48.5333 77.8719 47.9981 77.9526C47.7261 76.9244 47.5956 75.8657 47.4824 74.8092Z" fill="#293E58"/>
<path d="M34.0712 76.5014C34.3257 76.5691 34.5803 76.6367 34.8349 76.7044C34.8741 76.9903 34.9611 77.2786 34.9241 77.5733C34.7065 78.0099 34.1778 77.8789 33.7861 77.9116C33.8188 77.4291 33.9102 76.9555 34.0712 76.5014ZM34.2648 76.7481C34.1843 77.0603 34.106 77.3723 34.032 77.6889C34.4933 77.7871 34.7522 77.451 34.8218 77.0406C34.6826 76.9685 34.4041 76.8223 34.2648 76.7481Z" fill="#A0936B"/>
<path d="M34.265 76.748C34.4043 76.8222 34.6828 76.9685 34.8221 77.0405C34.7524 77.4509 34.4935 77.7871 34.0322 77.6888C34.1062 77.3723 34.1845 77.0602 34.265 76.748Z" fill="#363A31"/>
<path d="M38.8825 77.0448C39.2307 76.9882 39.3743 77.6146 39.0174 77.6976C38.6301 77.7827 38.5148 77.1366 38.8825 77.0448Z" fill="#AB955C"/>
<path d="M32.1988 78.5027C32.4686 78.4154 32.7297 78.5551 32.969 78.6686C32.8102 78.9699 32.1618 78.876 32.1988 78.5027Z" fill="#464B44"/>
<path d="M33.8418 78.9178C34.438 78.931 35.0342 78.9222 35.6303 78.9528C35.1625 79.3632 34.2596 79.4265 33.8418 78.9178Z" fill="#3B4544"/>
<path d="M46.4492 79.4288C47.3304 79.2715 48.2225 79.2126 49.1103 79.1123C48.3204 79.4352 47.4283 79.7649 46.5732 79.5925L46.4492 79.4288Z" fill="#2C3F56"/>
<path d="M36.8008 79.3807C37.1424 79.3305 37.4883 79.3174 37.83 79.3524C37.8321 79.8042 36.8552 79.8086 36.8008 79.3807Z" fill="#2F3D49"/>
<path d="M42.4355 79.3694C42.9121 79.328 43.3842 79.4284 43.852 79.5048C43.4321 79.6401 42.5879 79.9915 42.4355 79.3694Z" fill="#B0A789"/>
</svg>
