<svg width="123" height="123" viewBox="0 0 123 123" fill="none" xmlns="http://www.w3.org/2000/svg">
<g filter="url(#filter0_dd)">
<circle cx="61.5" cy="58.5" r="45.5" fill="white"/>
</g>
<path d="M70.0342 40.4627L53.3675 40.446C51.5342 40.446 50.0342 41.946 50.0342 43.7794V48.7794H53.3675V47.1127H70.0342V70.446H53.3675V68.7794H50.0342V73.7794C50.0342 75.6127 51.5342 77.1127 53.3675 77.1127H70.0342C71.8675 77.1127 73.3675 75.6127 73.3675 73.7794V43.7794C73.3675 41.946 71.8675 40.4627 70.0342 40.4627ZM56.7008 63.7794H60.0342V52.1127H48.3675V55.446H54.3508L45.0342 64.7627L47.3842 67.1127L56.7008 57.796V63.7794Z" fill="#333333"/>
<defs>
<filter id="filter0_dd" x="0.310346" y="0.448277" width="122.379" height="122.379" filterUnits="userSpaceOnUse" color-interpolation-filters="sRGB">
<feFlood flood-opacity="0" result="BackgroundImageFix"/>
<feColorMatrix in="SourceAlpha" type="matrix" values="0 0 0 0 0 0 0 0 0 0 0 0 0 0 0 0 0 0 127 0"/>
<feOffset dy="3.13793"/>
<feGaussianBlur stdDeviation="7.84483"/>
<feColorMatrix type="matrix" values="0 0 0 0 0 0 0 0 0 0 0 0 0 0 0 0 0 0 0.25 0"/>
<feBlend mode="normal" in2="BackgroundImageFix" result="effect1_dropShadow"/>
<feColorMatrix in="SourceAlpha" type="matrix" values="0 0 0 0 0 0 0 0 0 0 0 0 0 0 0 0 0 0 127 0"/>
<feOffset dy="2.51034"/>
<feGaussianBlur stdDeviation="3.13793"/>
<feColorMatrix type="matrix" values="0 0 0 0 0.2 0 0 0 0 0.2 0 0 0 0 0.2 0 0 0 0.1 0"/>
<feBlend mode="normal" in2="effect1_dropShadow" result="effect2_dropShadow"/>
<feBlend mode="normal" in="SourceGraphic" in2="effect2_dropShadow" result="shape"/>
</filter>
</defs>
</svg>
