<svg width="15" height="15" viewBox="0 0 15 15" fill="none" xmlns="http://www.w3.org/2000/svg">
<path d="M11.8136 0.467224H3.18478C1.68556 0.467224 0.466797 1.68676 0.466797 3.18521V11.8149C0.466797 13.3141 1.68634 14.5329 3.18478 14.5329H11.8145C13.3137 14.5329 14.5325 13.3134 14.5325 11.8149V3.18521C14.5324 1.68676 13.3129 0.467224 11.8136 0.467224ZM12.6699 2.0399L12.9777 2.03913V4.37351L10.6262 4.38132L10.6184 2.04694L12.6699 2.0399ZM7.49964 5.14689C9.45042 5.14689 9.85273 6.97813 9.85273 7.50075C9.85273 8.79684 8.7965 9.85307 7.49964 9.85307C6.20201 9.85307 5.14655 8.79684 5.14655 7.50075C5.14569 6.97813 5.54886 5.14689 7.49964 5.14689ZM12.991 11.6446C12.991 12.3876 12.3871 12.9922 11.6426 12.9922H3.33007C2.58629 12.9922 1.98163 12.3883 1.98163 11.6446V5.93443H3.93473C3.75349 6.3805 3.65111 6.98989 3.65111 7.50084C3.65111 9.62119 5.37611 11.347 7.49723 11.347C9.61836 11.347 11.3425 9.62119 11.3425 7.50084C11.3425 6.98989 11.2401 6.3805 11.0597 5.93443H12.9893V11.6446H12.991Z" fill="#00ADEE"/>
</svg>
