<svg width="16" height="12" viewBox="0 0 16 12" fill="none" xmlns="http://www.w3.org/2000/svg">
<path d="M15.3144 1.42111C14.7684 1.65702 14.1808 1.81561 13.5645 1.88753C14.1942 1.52109 14.677 0.942173 14.9043 0.250834C14.3153 0.590668 13.6637 0.83679 12.9692 0.968776C12.4137 0.394577 11.6223 0.0359497 10.7457 0.0359497C9.0645 0.0359497 7.70045 1.35864 7.70045 2.99139C7.70045 3.22344 7.72705 3.44922 7.77931 3.66565C5.24807 3.54224 3.00276 2.36484 1.50123 0.576594C1.23872 1.01331 1.08871 1.52032 1.08871 2.06251C1.08871 3.0875 1.62618 3.99372 2.44341 4.5227C1.94344 4.50708 1.47463 4.37501 1.06296 4.1524V4.1899C1.06296 5.62269 2.11293 6.81726 3.50668 7.08913C3.2512 7.15632 2.98242 7.19305 2.70429 7.19305C2.5082 7.19305 2.3176 7.17512 2.13164 7.13993C2.5191 8.31493 3.64416 9.16958 4.97775 9.19309C3.93482 9.98681 2.62148 10.4587 1.19418 10.4587C0.948056 10.4587 0.705882 10.4446 0.466797 10.4174C1.81601 11.2564 3.41606 11.7462 5.13711 11.7462C10.7402 11.7462 13.8043 7.23999 13.8043 3.33371L13.7957 2.95088C14.3894 2.53519 14.9059 2.01488 15.3144 1.42111Z" fill="#00ADEE"/>
</svg>
